<mxfile host="app.diagrams.net" agent="Mozilla/5.0 (Windows NT 10.0; Win64; x64) AppleWebKit/537.36 (KHTML, like Gecko) Chrome/137.0.0.0 Safari/537.36 OPR/121.0.0.0" version="28.2.0">
  <diagram name="PÃ¡gina-1" id="6w0agO9dn1mt7WKFG3AH">
    <mxGraphModel dx="1454" dy="1844" grid="1" gridSize="10" guides="1" tooltips="1" connect="1" arrows="1" fold="1" page="1" pageScale="1" pageWidth="827" pageHeight="1169" math="0" shadow="0">
      <root>
        <mxCell id="0" />
        <mxCell id="1" parent="0" />
        <mxCell id="1DMc-ccGn1UujM1KB7TH-1" style="edgeStyle=orthogonalEdgeStyle;rounded=0;orthogonalLoop=1;jettySize=auto;html=1;exitX=1;exitY=0.5;exitDx=0;exitDy=0;" edge="1" parent="1" source="1DMc-ccGn1UujM1KB7TH-2" target="1DMc-ccGn1UujM1KB7TH-13">
          <mxGeometry relative="1" as="geometry" />
        </mxCell>
        <mxCell id="1DMc-ccGn1UujM1KB7TH-2" value="INICIO" style="ellipse;whiteSpace=wrap;html=1;aspect=fixed;" vertex="1" parent="1">
          <mxGeometry x="650" y="860" width="70" height="70" as="geometry" />
        </mxCell>
        <mxCell id="1DMc-ccGn1UujM1KB7TH-3" value="0&lt;div&gt;&lt;br&gt;&lt;/div&gt;" style="text;html=1;align=center;verticalAlign=middle;resizable=0;points=[];autosize=1;strokeColor=none;fillColor=none;" vertex="1" parent="1">
          <mxGeometry x="680" y="828" width="30" height="40" as="geometry" />
        </mxCell>
        <mxCell id="1DMc-ccGn1UujM1KB7TH-4" value="" style="endArrow=none;html=1;rounded=0;" edge="1" parent="1">
          <mxGeometry width="50" height="50" relative="1" as="geometry">
            <mxPoint x="684.5" y="990" as="sourcePoint" />
            <mxPoint x="684.5" y="950" as="targetPoint" />
          </mxGeometry>
        </mxCell>
        <mxCell id="1DMc-ccGn1UujM1KB7TH-5" value="" style="endArrow=none;html=1;rounded=0;" edge="1" parent="1">
          <mxGeometry width="50" height="50" relative="1" as="geometry">
            <mxPoint x="660" y="967" as="sourcePoint" />
            <mxPoint x="720" y="967" as="targetPoint" />
          </mxGeometry>
        </mxCell>
        <mxCell id="1DMc-ccGn1UujM1KB7TH-6" value="0" style="text;html=1;align=center;verticalAlign=middle;resizable=0;points=[];autosize=1;strokeColor=none;fillColor=none;" vertex="1" parent="1">
          <mxGeometry x="690" y="938" width="30" height="30" as="geometry" />
        </mxCell>
        <mxCell id="1DMc-ccGn1UujM1KB7TH-7" value="0" style="text;html=1;align=center;verticalAlign=middle;resizable=0;points=[];autosize=1;strokeColor=none;fillColor=none;" vertex="1" parent="1">
          <mxGeometry x="650" y="938" width="30" height="30" as="geometry" />
        </mxCell>
        <mxCell id="1DMc-ccGn1UujM1KB7TH-8" style="edgeStyle=orthogonalEdgeStyle;rounded=0;orthogonalLoop=1;jettySize=auto;html=1;exitX=1;exitY=0.5;exitDx=0;exitDy=0;entryX=0;entryY=0.5;entryDx=0;entryDy=0;" edge="1" parent="1" source="1DMc-ccGn1UujM1KB7TH-13" target="1DMc-ccGn1UujM1KB7TH-22">
          <mxGeometry relative="1" as="geometry" />
        </mxCell>
        <mxCell id="1DMc-ccGn1UujM1KB7TH-9" style="edgeStyle=orthogonalEdgeStyle;rounded=0;orthogonalLoop=1;jettySize=auto;html=1;exitX=1;exitY=0.5;exitDx=0;exitDy=0;entryX=0;entryY=0.5;entryDx=0;entryDy=0;" edge="1" parent="1" source="1DMc-ccGn1UujM1KB7TH-13" target="1DMc-ccGn1UujM1KB7TH-19">
          <mxGeometry relative="1" as="geometry" />
        </mxCell>
        <mxCell id="1DMc-ccGn1UujM1KB7TH-10" style="edgeStyle=orthogonalEdgeStyle;rounded=0;orthogonalLoop=1;jettySize=auto;html=1;exitX=1;exitY=0.5;exitDx=0;exitDy=0;entryX=0;entryY=0.5;entryDx=0;entryDy=0;" edge="1" parent="1" source="1DMc-ccGn1UujM1KB7TH-13" target="1DMc-ccGn1UujM1KB7TH-16">
          <mxGeometry relative="1" as="geometry" />
        </mxCell>
        <mxCell id="1DMc-ccGn1UujM1KB7TH-11" style="edgeStyle=orthogonalEdgeStyle;rounded=0;orthogonalLoop=1;jettySize=auto;html=1;exitX=1;exitY=0.5;exitDx=0;exitDy=0;entryX=0;entryY=0.5;entryDx=0;entryDy=0;" edge="1" parent="1" source="1DMc-ccGn1UujM1KB7TH-13" target="1DMc-ccGn1UujM1KB7TH-20">
          <mxGeometry relative="1" as="geometry" />
        </mxCell>
        <mxCell id="1DMc-ccGn1UujM1KB7TH-12" style="edgeStyle=orthogonalEdgeStyle;rounded=0;orthogonalLoop=1;jettySize=auto;html=1;exitX=1;exitY=0.5;exitDx=0;exitDy=0;entryX=0;entryY=0.5;entryDx=0;entryDy=0;" edge="1" parent="1" source="1DMc-ccGn1UujM1KB7TH-13" target="1DMc-ccGn1UujM1KB7TH-21">
          <mxGeometry relative="1" as="geometry" />
        </mxCell>
        <mxCell id="1DMc-ccGn1UujM1KB7TH-13" value="1" style="ellipse;whiteSpace=wrap;html=1;aspect=fixed;" vertex="1" parent="1">
          <mxGeometry x="780" y="860" width="70" height="70" as="geometry" />
        </mxCell>
        <mxCell id="1DMc-ccGn1UujM1KB7TH-14" value="1" style="text;html=1;align=center;verticalAlign=middle;resizable=0;points=[];autosize=1;strokeColor=none;fillColor=none;" vertex="1" parent="1">
          <mxGeometry x="800" y="830" width="30" height="30" as="geometry" />
        </mxCell>
        <mxCell id="1DMc-ccGn1UujM1KB7TH-15" value="" style="endArrow=none;html=1;rounded=0;" edge="1" parent="1">
          <mxGeometry width="50" height="50" relative="1" as="geometry">
            <mxPoint x="800" y="967" as="sourcePoint" />
            <mxPoint x="840" y="967" as="targetPoint" />
          </mxGeometry>
        </mxCell>
        <mxCell id="1DMc-ccGn1UujM1KB7TH-254" style="edgeStyle=orthogonalEdgeStyle;rounded=0;orthogonalLoop=1;jettySize=auto;html=1;entryX=0;entryY=1;entryDx=0;entryDy=0;" edge="1" parent="1" source="1DMc-ccGn1UujM1KB7TH-16" target="1DMc-ccGn1UujM1KB7TH-193">
          <mxGeometry relative="1" as="geometry" />
        </mxCell>
        <mxCell id="1DMc-ccGn1UujM1KB7TH-16" value="4" style="ellipse;whiteSpace=wrap;html=1;aspect=fixed;" vertex="1" parent="1">
          <mxGeometry x="975" y="860" width="70" height="70" as="geometry" />
        </mxCell>
        <mxCell id="1DMc-ccGn1UujM1KB7TH-17" value="0" style="text;html=1;align=center;verticalAlign=middle;resizable=0;points=[];autosize=1;strokeColor=none;fillColor=none;" vertex="1" parent="1">
          <mxGeometry x="790" y="938" width="30" height="30" as="geometry" />
        </mxCell>
        <mxCell id="1DMc-ccGn1UujM1KB7TH-18" value="1" style="text;html=1;align=center;verticalAlign=middle;resizable=0;points=[];autosize=1;strokeColor=none;fillColor=none;" vertex="1" parent="1">
          <mxGeometry x="820" y="938" width="30" height="30" as="geometry" />
        </mxCell>
        <mxCell id="1DMc-ccGn1UujM1KB7TH-257" style="edgeStyle=orthogonalEdgeStyle;rounded=0;orthogonalLoop=1;jettySize=auto;html=1;exitX=1;exitY=0.5;exitDx=0;exitDy=0;entryX=0;entryY=0.5;entryDx=0;entryDy=0;" edge="1" parent="1" source="1DMc-ccGn1UujM1KB7TH-19" target="1DMc-ccGn1UujM1KB7TH-193">
          <mxGeometry relative="1" as="geometry" />
        </mxCell>
        <mxCell id="1DMc-ccGn1UujM1KB7TH-19" value="3" style="ellipse;whiteSpace=wrap;html=1;aspect=fixed;" vertex="1" parent="1">
          <mxGeometry x="980" y="700" width="70" height="70" as="geometry" />
        </mxCell>
        <mxCell id="1DMc-ccGn1UujM1KB7TH-20" value="5" style="ellipse;whiteSpace=wrap;html=1;aspect=fixed;" vertex="1" parent="1">
          <mxGeometry x="970" y="1040" width="70" height="70" as="geometry" />
        </mxCell>
        <mxCell id="1DMc-ccGn1UujM1KB7TH-21" value="6" style="ellipse;whiteSpace=wrap;html=1;aspect=fixed;" vertex="1" parent="1">
          <mxGeometry x="970" y="1719" width="70" height="70" as="geometry" />
        </mxCell>
        <mxCell id="1DMc-ccGn1UujM1KB7TH-261" style="edgeStyle=orthogonalEdgeStyle;rounded=0;orthogonalLoop=1;jettySize=auto;html=1;entryX=1;entryY=0;entryDx=0;entryDy=0;" edge="1" parent="1" source="1DMc-ccGn1UujM1KB7TH-22" target="1DMc-ccGn1UujM1KB7TH-193">
          <mxGeometry relative="1" as="geometry" />
        </mxCell>
        <mxCell id="1DMc-ccGn1UujM1KB7TH-22" value="2" style="ellipse;whiteSpace=wrap;html=1;aspect=fixed;" vertex="1" parent="1">
          <mxGeometry x="970" y="490" width="70" height="70" as="geometry" />
        </mxCell>
        <mxCell id="1DMc-ccGn1UujM1KB7TH-23" value="" style="endArrow=none;html=1;rounded=0;entryX=-0.033;entryY=0.2;entryDx=0;entryDy=0;entryPerimeter=0;" edge="1" parent="1" target="1DMc-ccGn1UujM1KB7TH-18">
          <mxGeometry width="50" height="50" relative="1" as="geometry">
            <mxPoint x="820" y="990" as="sourcePoint" />
            <mxPoint x="870" y="940" as="targetPoint" />
          </mxGeometry>
        </mxCell>
        <mxCell id="1DMc-ccGn1UujM1KB7TH-24" value="1" style="text;html=1;align=center;verticalAlign=middle;resizable=0;points=[];autosize=1;strokeColor=none;fillColor=none;" vertex="1" parent="1">
          <mxGeometry x="990" y="460" width="30" height="30" as="geometry" />
        </mxCell>
        <mxCell id="1DMc-ccGn1UujM1KB7TH-25" value="" style="endArrow=none;html=1;rounded=0;" edge="1" parent="1">
          <mxGeometry width="50" height="50" relative="1" as="geometry">
            <mxPoint x="980" y="590" as="sourcePoint" />
            <mxPoint x="1030" y="590" as="targetPoint" />
          </mxGeometry>
        </mxCell>
        <mxCell id="1DMc-ccGn1UujM1KB7TH-26" value="1" style="text;html=1;align=center;verticalAlign=middle;resizable=0;points=[];autosize=1;strokeColor=none;fillColor=none;" vertex="1" parent="1">
          <mxGeometry x="970" y="560" width="30" height="30" as="geometry" />
        </mxCell>
        <mxCell id="1DMc-ccGn1UujM1KB7TH-27" value="2" style="text;html=1;align=center;verticalAlign=middle;resizable=0;points=[];autosize=1;strokeColor=none;fillColor=none;" vertex="1" parent="1">
          <mxGeometry x="1000" y="560" width="30" height="30" as="geometry" />
        </mxCell>
        <mxCell id="1DMc-ccGn1UujM1KB7TH-28" value="" style="endArrow=none;html=1;rounded=0;entryX=1.033;entryY=0.133;entryDx=0;entryDy=0;entryPerimeter=0;" edge="1" parent="1" target="1DMc-ccGn1UujM1KB7TH-26">
          <mxGeometry width="50" height="50" relative="1" as="geometry">
            <mxPoint x="1001" y="610" as="sourcePoint" />
            <mxPoint x="1050" y="550" as="targetPoint" />
          </mxGeometry>
        </mxCell>
        <mxCell id="1DMc-ccGn1UujM1KB7TH-29" value="4" style="text;html=1;align=center;verticalAlign=middle;resizable=0;points=[];autosize=1;strokeColor=none;fillColor=none;" vertex="1" parent="1">
          <mxGeometry x="985" y="668" width="30" height="30" as="geometry" />
        </mxCell>
        <mxCell id="1DMc-ccGn1UujM1KB7TH-30" value="" style="endArrow=none;html=1;rounded=0;" edge="1" parent="1">
          <mxGeometry width="50" height="50" relative="1" as="geometry">
            <mxPoint x="985" y="800" as="sourcePoint" />
            <mxPoint x="1045" y="800" as="targetPoint" />
          </mxGeometry>
        </mxCell>
        <mxCell id="1DMc-ccGn1UujM1KB7TH-31" value="" style="endArrow=none;html=1;rounded=0;" edge="1" parent="1">
          <mxGeometry width="50" height="50" relative="1" as="geometry">
            <mxPoint x="1010" y="820" as="sourcePoint" />
            <mxPoint x="1010" y="780" as="targetPoint" />
          </mxGeometry>
        </mxCell>
        <mxCell id="1DMc-ccGn1UujM1KB7TH-32" value="1" style="text;html=1;align=center;verticalAlign=middle;resizable=0;points=[];autosize=1;strokeColor=none;fillColor=none;" vertex="1" parent="1">
          <mxGeometry x="985" y="770" width="30" height="30" as="geometry" />
        </mxCell>
        <mxCell id="1DMc-ccGn1UujM1KB7TH-33" value="5" style="text;html=1;align=center;verticalAlign=middle;resizable=0;points=[];autosize=1;strokeColor=none;fillColor=none;" vertex="1" parent="1">
          <mxGeometry x="1010" y="770" width="30" height="30" as="geometry" />
        </mxCell>
        <mxCell id="1DMc-ccGn1UujM1KB7TH-34" value="5" style="text;html=1;align=center;verticalAlign=middle;resizable=0;points=[];autosize=1;strokeColor=none;fillColor=none;" vertex="1" parent="1">
          <mxGeometry x="995" y="838" width="30" height="30" as="geometry" />
        </mxCell>
        <mxCell id="1DMc-ccGn1UujM1KB7TH-35" value="" style="endArrow=none;html=1;rounded=0;" edge="1" parent="1">
          <mxGeometry width="50" height="50" relative="1" as="geometry">
            <mxPoint x="1010" y="1000" as="sourcePoint" />
            <mxPoint x="1010" y="940" as="targetPoint" />
          </mxGeometry>
        </mxCell>
        <mxCell id="1DMc-ccGn1UujM1KB7TH-36" value="" style="endArrow=none;html=1;rounded=0;" edge="1" parent="1">
          <mxGeometry width="50" height="50" relative="1" as="geometry">
            <mxPoint x="990" y="970" as="sourcePoint" />
            <mxPoint x="1030" y="970" as="targetPoint" />
          </mxGeometry>
        </mxCell>
        <mxCell id="1DMc-ccGn1UujM1KB7TH-37" value="1" style="text;html=1;align=center;verticalAlign=middle;resizable=0;points=[];autosize=1;strokeColor=none;fillColor=none;" vertex="1" parent="1">
          <mxGeometry x="980" y="938" width="30" height="30" as="geometry" />
        </mxCell>
        <mxCell id="1DMc-ccGn1UujM1KB7TH-38" value="6" style="text;html=1;align=center;verticalAlign=middle;resizable=0;points=[];autosize=1;strokeColor=none;fillColor=none;" vertex="1" parent="1">
          <mxGeometry x="1005" y="938" width="30" height="30" as="geometry" />
        </mxCell>
        <mxCell id="1DMc-ccGn1UujM1KB7TH-39" value="7" style="text;html=1;align=center;verticalAlign=middle;resizable=0;points=[];autosize=1;strokeColor=none;fillColor=none;" vertex="1" parent="1">
          <mxGeometry x="990" y="1018" width="30" height="30" as="geometry" />
        </mxCell>
        <mxCell id="1DMc-ccGn1UujM1KB7TH-40" value="" style="endArrow=none;html=1;rounded=0;" edge="1" parent="1">
          <mxGeometry width="50" height="50" relative="1" as="geometry">
            <mxPoint x="985" y="1140" as="sourcePoint" />
            <mxPoint x="1025" y="1140" as="targetPoint" />
          </mxGeometry>
        </mxCell>
        <mxCell id="1DMc-ccGn1UujM1KB7TH-41" value="" style="endArrow=none;html=1;rounded=0;" edge="1" parent="1">
          <mxGeometry width="50" height="50" relative="1" as="geometry">
            <mxPoint x="1005" y="1160" as="sourcePoint" />
            <mxPoint x="1005" y="1120" as="targetPoint" />
          </mxGeometry>
        </mxCell>
        <mxCell id="1DMc-ccGn1UujM1KB7TH-42" value="1" style="text;html=1;align=center;verticalAlign=middle;resizable=0;points=[];autosize=1;strokeColor=none;fillColor=none;" vertex="1" parent="1">
          <mxGeometry x="975" y="1118" width="30" height="30" as="geometry" />
        </mxCell>
        <mxCell id="1DMc-ccGn1UujM1KB7TH-43" value="8" style="text;html=1;align=center;verticalAlign=middle;resizable=0;points=[];autosize=1;strokeColor=none;fillColor=none;" vertex="1" parent="1">
          <mxGeometry x="1000" y="1118" width="30" height="30" as="geometry" />
        </mxCell>
        <mxCell id="1DMc-ccGn1UujM1KB7TH-44" value="2" style="text;html=1;align=center;verticalAlign=middle;resizable=0;points=[];autosize=1;strokeColor=none;fillColor=none;" vertex="1" parent="1">
          <mxGeometry x="990" y="1689" width="30" height="30" as="geometry" />
        </mxCell>
        <mxCell id="1DMc-ccGn1UujM1KB7TH-45" value="" style="endArrow=none;html=1;rounded=0;" edge="1" parent="1">
          <mxGeometry width="50" height="50" relative="1" as="geometry">
            <mxPoint x="1000" y="1850" as="sourcePoint" />
            <mxPoint x="1000" y="1800" as="targetPoint" />
          </mxGeometry>
        </mxCell>
        <mxCell id="1DMc-ccGn1UujM1KB7TH-46" value="" style="endArrow=none;html=1;rounded=0;" edge="1" parent="1">
          <mxGeometry width="50" height="50" relative="1" as="geometry">
            <mxPoint x="980" y="1828.57" as="sourcePoint" />
            <mxPoint x="1020" y="1828.57" as="targetPoint" />
          </mxGeometry>
        </mxCell>
        <mxCell id="1DMc-ccGn1UujM1KB7TH-47" value="1" style="text;html=1;align=center;verticalAlign=middle;resizable=0;points=[];autosize=1;strokeColor=none;fillColor=none;" vertex="1" parent="1">
          <mxGeometry x="975" y="1800" width="30" height="30" as="geometry" />
        </mxCell>
        <mxCell id="1DMc-ccGn1UujM1KB7TH-48" value="3" style="text;html=1;align=center;verticalAlign=middle;resizable=0;points=[];autosize=1;strokeColor=none;fillColor=none;" vertex="1" parent="1">
          <mxGeometry x="995" y="1800" width="30" height="30" as="geometry" />
        </mxCell>
        <mxCell id="1DMc-ccGn1UujM1KB7TH-49" value="" style="endArrow=none;html=1;rounded=0;exitX=1.025;exitY=0.581;exitDx=0;exitDy=0;endFill=0;exitPerimeter=0;" edge="1" parent="1" source="1DMc-ccGn1UujM1KB7TH-21">
          <mxGeometry width="50" height="50" relative="1" as="geometry">
            <mxPoint x="1070" y="1770" as="sourcePoint" />
            <mxPoint x="1160" y="1760" as="targetPoint" />
            <Array as="points">
              <mxPoint x="1100" y="1760" />
            </Array>
          </mxGeometry>
        </mxCell>
        <mxCell id="1DMc-ccGn1UujM1KB7TH-50" value="" style="endArrow=none;html=1;rounded=0;endFill=0;" edge="1" parent="1">
          <mxGeometry width="50" height="50" relative="1" as="geometry">
            <mxPoint x="1160" y="2920" as="sourcePoint" />
            <mxPoint x="1160" y="1200" as="targetPoint" />
          </mxGeometry>
        </mxCell>
        <mxCell id="1DMc-ccGn1UujM1KB7TH-51" value="9" style="ellipse;whiteSpace=wrap;html=1;aspect=fixed;" vertex="1" parent="1">
          <mxGeometry x="1260" y="1440" width="70" height="70" as="geometry" />
        </mxCell>
        <mxCell id="1DMc-ccGn1UujM1KB7TH-52" value="" style="endArrow=none;html=1;rounded=0;" edge="1" parent="1">
          <mxGeometry width="50" height="50" relative="1" as="geometry">
            <mxPoint x="1294.5700000000002" y="1585" as="sourcePoint" />
            <mxPoint x="1294.5700000000002" y="1525" as="targetPoint" />
          </mxGeometry>
        </mxCell>
        <mxCell id="1DMc-ccGn1UujM1KB7TH-53" value="" style="endArrow=none;html=1;rounded=0;" edge="1" parent="1">
          <mxGeometry width="50" height="50" relative="1" as="geometry">
            <mxPoint x="1260" y="1550" as="sourcePoint" />
            <mxPoint x="1330" y="1550" as="targetPoint" />
          </mxGeometry>
        </mxCell>
        <mxCell id="1DMc-ccGn1UujM1KB7TH-54" value="40" style="text;html=1;align=center;verticalAlign=middle;whiteSpace=wrap;rounded=0;" vertex="1" parent="1">
          <mxGeometry x="1265" y="1410" width="60" height="30" as="geometry" />
        </mxCell>
        <mxCell id="1DMc-ccGn1UujM1KB7TH-55" value="43" style="text;html=1;align=center;verticalAlign=middle;whiteSpace=wrap;rounded=0;" vertex="1" parent="1">
          <mxGeometry x="1280" y="1520" width="60" height="30" as="geometry" />
        </mxCell>
        <mxCell id="1DMc-ccGn1UujM1KB7TH-56" value="3" style="text;html=1;align=center;verticalAlign=middle;whiteSpace=wrap;rounded=0;" vertex="1" parent="1">
          <mxGeometry x="1250" y="1520" width="60" height="30" as="geometry" />
        </mxCell>
        <mxCell id="1DMc-ccGn1UujM1KB7TH-57" value="" style="endArrow=classic;html=1;rounded=0;entryX=-0.022;entryY=0.579;entryDx=0;entryDy=0;entryPerimeter=0;" edge="1" parent="1" target="1DMc-ccGn1UujM1KB7TH-51">
          <mxGeometry width="50" height="50" relative="1" as="geometry">
            <mxPoint x="1160" y="1480" as="sourcePoint" />
            <mxPoint x="1240" y="1510" as="targetPoint" />
          </mxGeometry>
        </mxCell>
        <mxCell id="1DMc-ccGn1UujM1KB7TH-58" value="&lt;div&gt;7&lt;/div&gt;" style="ellipse;whiteSpace=wrap;html=1;aspect=fixed;" vertex="1" parent="1">
          <mxGeometry x="1260" y="1719" width="70" height="70" as="geometry" />
        </mxCell>
        <mxCell id="1DMc-ccGn1UujM1KB7TH-59" value="" style="endArrow=classic;html=1;rounded=0;entryX=0;entryY=0.586;entryDx=0;entryDy=0;entryPerimeter=0;" edge="1" parent="1" target="1DMc-ccGn1UujM1KB7TH-58">
          <mxGeometry width="50" height="50" relative="1" as="geometry">
            <mxPoint x="1160" y="1760" as="sourcePoint" />
            <mxPoint x="1240" y="1740" as="targetPoint" />
          </mxGeometry>
        </mxCell>
        <mxCell id="1DMc-ccGn1UujM1KB7TH-60" value="24" style="text;html=1;align=center;verticalAlign=middle;resizable=0;points=[];autosize=1;strokeColor=none;fillColor=none;" vertex="1" parent="1">
          <mxGeometry x="1275" y="1680" width="40" height="30" as="geometry" />
        </mxCell>
        <mxCell id="1DMc-ccGn1UujM1KB7TH-61" value="" style="endArrow=none;html=1;rounded=0;" edge="1" parent="1">
          <mxGeometry width="50" height="50" relative="1" as="geometry">
            <mxPoint x="1294.44" y="1860" as="sourcePoint" />
            <mxPoint x="1295" y="1800" as="targetPoint" />
          </mxGeometry>
        </mxCell>
        <mxCell id="1DMc-ccGn1UujM1KB7TH-62" value="" style="endArrow=none;html=1;rounded=0;" edge="1" parent="1">
          <mxGeometry width="50" height="50" relative="1" as="geometry">
            <mxPoint x="1260" y="1828.89" as="sourcePoint" />
            <mxPoint x="1330" y="1828.89" as="targetPoint" />
          </mxGeometry>
        </mxCell>
        <mxCell id="1DMc-ccGn1UujM1KB7TH-63" value="3" style="text;html=1;align=center;verticalAlign=middle;whiteSpace=wrap;rounded=0;" vertex="1" parent="1">
          <mxGeometry x="1250" y="1800" width="60" height="30" as="geometry" />
        </mxCell>
        <mxCell id="1DMc-ccGn1UujM1KB7TH-64" value="27" style="text;html=1;align=center;verticalAlign=middle;whiteSpace=wrap;rounded=0;" vertex="1" parent="1">
          <mxGeometry x="1280" y="1800" width="60" height="30" as="geometry" />
        </mxCell>
        <mxCell id="1DMc-ccGn1UujM1KB7TH-65" value="10" style="ellipse;whiteSpace=wrap;html=1;aspect=fixed;" vertex="1" parent="1">
          <mxGeometry x="1260" y="1169" width="70" height="70" as="geometry" />
        </mxCell>
        <mxCell id="1DMc-ccGn1UujM1KB7TH-66" value="" style="endArrow=classic;html=1;rounded=0;" edge="1" parent="1">
          <mxGeometry width="50" height="50" relative="1" as="geometry">
            <mxPoint x="1160" y="1200" as="sourcePoint" />
            <mxPoint x="1260" y="1200" as="targetPoint" />
          </mxGeometry>
        </mxCell>
        <mxCell id="1DMc-ccGn1UujM1KB7TH-67" value="48" style="text;html=1;align=center;verticalAlign=middle;whiteSpace=wrap;rounded=0;" vertex="1" parent="1">
          <mxGeometry x="1265" y="1130" width="60" height="30" as="geometry" />
        </mxCell>
        <mxCell id="1DMc-ccGn1UujM1KB7TH-68" value="" style="endArrow=none;html=1;rounded=0;" edge="1" parent="1">
          <mxGeometry width="50" height="50" relative="1" as="geometry">
            <mxPoint x="1294.64" y="1320" as="sourcePoint" />
            <mxPoint x="1294.64" y="1260" as="targetPoint" />
          </mxGeometry>
        </mxCell>
        <mxCell id="1DMc-ccGn1UujM1KB7TH-69" value="" style="endArrow=none;html=1;rounded=0;" edge="1" parent="1">
          <mxGeometry width="50" height="50" relative="1" as="geometry">
            <mxPoint x="1270" y="1280" as="sourcePoint" />
            <mxPoint x="1320" y="1280" as="targetPoint" />
          </mxGeometry>
        </mxCell>
        <mxCell id="1DMc-ccGn1UujM1KB7TH-70" value="51" style="text;html=1;align=center;verticalAlign=middle;whiteSpace=wrap;rounded=0;" vertex="1" parent="1">
          <mxGeometry x="1280" y="1250" width="60" height="30" as="geometry" />
        </mxCell>
        <mxCell id="1DMc-ccGn1UujM1KB7TH-71" value="3" style="text;html=1;align=center;verticalAlign=middle;whiteSpace=wrap;rounded=0;" vertex="1" parent="1">
          <mxGeometry x="1250" y="1250" width="60" height="30" as="geometry" />
        </mxCell>
        <mxCell id="1DMc-ccGn1UujM1KB7TH-72" value="" style="endArrow=classic;html=1;rounded=0;entryX=0.945;entryY=1.075;entryDx=0;entryDy=0;entryPerimeter=0;" edge="1" parent="1" target="1DMc-ccGn1UujM1KB7TH-292">
          <mxGeometry width="50" height="50" relative="1" as="geometry">
            <mxPoint x="1160" y="2392" as="sourcePoint" />
            <mxPoint x="1245" y="2400" as="targetPoint" />
          </mxGeometry>
        </mxCell>
        <mxCell id="1DMc-ccGn1UujM1KB7TH-294" style="edgeStyle=orthogonalEdgeStyle;rounded=0;orthogonalLoop=1;jettySize=auto;html=1;entryX=0;entryY=0.5;entryDx=0;entryDy=0;" edge="1" parent="1" source="1DMc-ccGn1UujM1KB7TH-73" target="1DMc-ccGn1UujM1KB7TH-101">
          <mxGeometry relative="1" as="geometry" />
        </mxCell>
        <mxCell id="1DMc-ccGn1UujM1KB7TH-73" value="&lt;div&gt;8&lt;/div&gt;" style="ellipse;whiteSpace=wrap;html=1;aspect=fixed;" vertex="1" parent="1">
          <mxGeometry x="1241" y="2360" width="70" height="70" as="geometry" />
        </mxCell>
        <mxCell id="1DMc-ccGn1UujM1KB7TH-74" value="32" style="text;html=1;align=center;verticalAlign=middle;whiteSpace=wrap;rounded=0;" vertex="1" parent="1">
          <mxGeometry x="1250" y="2330" width="60" height="30" as="geometry" />
        </mxCell>
        <mxCell id="1DMc-ccGn1UujM1KB7TH-75" value="" style="endArrow=none;html=1;rounded=0;" edge="1" parent="1">
          <mxGeometry width="50" height="50" relative="1" as="geometry">
            <mxPoint x="1280" y="2520" as="sourcePoint" />
            <mxPoint x="1280" y="2450" as="targetPoint" />
          </mxGeometry>
        </mxCell>
        <mxCell id="1DMc-ccGn1UujM1KB7TH-76" value="" style="endArrow=none;html=1;rounded=0;" edge="1" parent="1">
          <mxGeometry width="50" height="50" relative="1" as="geometry">
            <mxPoint x="1235" y="2480" as="sourcePoint" />
            <mxPoint x="1315" y="2480" as="targetPoint" />
          </mxGeometry>
        </mxCell>
        <mxCell id="1DMc-ccGn1UujM1KB7TH-77" value="35" style="text;html=1;align=center;verticalAlign=middle;whiteSpace=wrap;rounded=0;" vertex="1" parent="1">
          <mxGeometry x="1270" y="2450" width="60" height="30" as="geometry" />
        </mxCell>
        <mxCell id="1DMc-ccGn1UujM1KB7TH-78" value="3" style="text;html=1;align=center;verticalAlign=middle;whiteSpace=wrap;rounded=0;" vertex="1" parent="1">
          <mxGeometry x="1230" y="2450" width="60" height="30" as="geometry" />
        </mxCell>
        <mxCell id="1DMc-ccGn1UujM1KB7TH-79" value="" style="endArrow=classic;html=1;rounded=0;exitX=1.018;exitY=0.596;exitDx=0;exitDy=0;exitPerimeter=0;entryX=-0.002;entryY=0.586;entryDx=0;entryDy=0;entryPerimeter=0;endFill=1;" edge="1" parent="1" source="1DMc-ccGn1UujM1KB7TH-58" target="1DMc-ccGn1UujM1KB7TH-80">
          <mxGeometry width="50" height="50" relative="1" as="geometry">
            <mxPoint x="1350" y="1790" as="sourcePoint" />
            <mxPoint x="1437" y="1760" as="targetPoint" />
          </mxGeometry>
        </mxCell>
        <mxCell id="1DMc-ccGn1UujM1KB7TH-80" value="&lt;div&gt;11&lt;/div&gt;" style="ellipse;whiteSpace=wrap;html=1;aspect=fixed;" vertex="1" parent="1">
          <mxGeometry x="1440" y="1719" width="70" height="70" as="geometry" />
        </mxCell>
        <mxCell id="1DMc-ccGn1UujM1KB7TH-81" value="" style="endArrow=none;html=1;rounded=0;" edge="1" parent="1">
          <mxGeometry width="50" height="50" relative="1" as="geometry">
            <mxPoint x="1475" y="1870" as="sourcePoint" />
            <mxPoint x="1474.64" y="1800" as="targetPoint" />
          </mxGeometry>
        </mxCell>
        <mxCell id="1DMc-ccGn1UujM1KB7TH-82" value="" style="endArrow=none;html=1;rounded=0;" edge="1" parent="1">
          <mxGeometry width="50" height="50" relative="1" as="geometry">
            <mxPoint x="1440" y="1829.29" as="sourcePoint" />
            <mxPoint x="1510" y="1829.29" as="targetPoint" />
          </mxGeometry>
        </mxCell>
        <mxCell id="1DMc-ccGn1UujM1KB7TH-83" value="32" style="text;html=1;align=center;verticalAlign=middle;resizable=0;points=[];autosize=1;strokeColor=none;fillColor=none;" vertex="1" parent="1">
          <mxGeometry x="1455" y="1689" width="40" height="30" as="geometry" />
        </mxCell>
        <mxCell id="1DMc-ccGn1UujM1KB7TH-84" value="59" style="text;html=1;align=center;verticalAlign=middle;whiteSpace=wrap;rounded=0;" vertex="1" parent="1">
          <mxGeometry x="1460" y="1800" width="60" height="30" as="geometry" />
        </mxCell>
        <mxCell id="1DMc-ccGn1UujM1KB7TH-85" value="27" style="text;html=1;align=center;verticalAlign=middle;resizable=0;points=[];autosize=1;strokeColor=none;fillColor=none;" vertex="1" parent="1">
          <mxGeometry x="1440" y="1800" width="40" height="30" as="geometry" />
        </mxCell>
        <mxCell id="1DMc-ccGn1UujM1KB7TH-267" style="edgeStyle=orthogonalEdgeStyle;rounded=0;orthogonalLoop=1;jettySize=auto;html=1;exitX=1;exitY=0.5;exitDx=0;exitDy=0;entryX=0;entryY=1;entryDx=0;entryDy=0;" edge="1" parent="1" source="1DMc-ccGn1UujM1KB7TH-86" target="1DMc-ccGn1UujM1KB7TH-193">
          <mxGeometry relative="1" as="geometry" />
        </mxCell>
        <mxCell id="1DMc-ccGn1UujM1KB7TH-86" value="&lt;div&gt;13&lt;/div&gt;" style="ellipse;whiteSpace=wrap;html=1;aspect=fixed;" vertex="1" parent="1">
          <mxGeometry x="1440" y="1960" width="70" height="70" as="geometry" />
        </mxCell>
        <mxCell id="1DMc-ccGn1UujM1KB7TH-87" value="" style="endArrow=classic;html=1;rounded=0;exitX=1;exitY=1;exitDx=0;exitDy=0;entryX=0.343;entryY=-0.014;entryDx=0;entryDy=0;entryPerimeter=0;" edge="1" parent="1" source="1DMc-ccGn1UujM1KB7TH-58" target="1DMc-ccGn1UujM1KB7TH-86">
          <mxGeometry width="50" height="50" relative="1" as="geometry">
            <mxPoint x="1380" y="1910" as="sourcePoint" />
            <mxPoint x="1430" y="1860" as="targetPoint" />
          </mxGeometry>
        </mxCell>
        <mxCell id="1DMc-ccGn1UujM1KB7TH-88" value="4" style="text;html=1;align=center;verticalAlign=middle;whiteSpace=wrap;rounded=0;" vertex="1" parent="1">
          <mxGeometry x="1460" y="1930" width="60" height="30" as="geometry" />
        </mxCell>
        <mxCell id="1DMc-ccGn1UujM1KB7TH-89" value="" style="endArrow=none;html=1;rounded=0;" edge="1" parent="1">
          <mxGeometry width="50" height="50" relative="1" as="geometry">
            <mxPoint x="1480" y="2120" as="sourcePoint" />
            <mxPoint x="1480" y="2050" as="targetPoint" />
          </mxGeometry>
        </mxCell>
        <mxCell id="1DMc-ccGn1UujM1KB7TH-90" value="" style="endArrow=none;html=1;rounded=0;" edge="1" parent="1">
          <mxGeometry width="50" height="50" relative="1" as="geometry">
            <mxPoint x="1450" y="2080" as="sourcePoint" />
            <mxPoint x="1510" y="2080" as="targetPoint" />
          </mxGeometry>
        </mxCell>
        <mxCell id="1DMc-ccGn1UujM1KB7TH-91" value="27" style="text;html=1;align=center;verticalAlign=middle;whiteSpace=wrap;rounded=0;" vertex="1" parent="1">
          <mxGeometry x="1435" y="2050" width="60" height="30" as="geometry" />
        </mxCell>
        <mxCell id="1DMc-ccGn1UujM1KB7TH-92" value="31" style="text;html=1;align=center;verticalAlign=middle;whiteSpace=wrap;rounded=0;" vertex="1" parent="1">
          <mxGeometry x="1470" y="2050" width="60" height="30" as="geometry" />
        </mxCell>
        <mxCell id="1DMc-ccGn1UujM1KB7TH-93" value="" style="endArrow=classic;html=1;rounded=0;exitX=1.029;exitY=0.614;exitDx=0;exitDy=0;exitPerimeter=0;entryX=0;entryY=0.586;entryDx=0;entryDy=0;entryPerimeter=0;" edge="1" parent="1" source="1DMc-ccGn1UujM1KB7TH-80" target="1DMc-ccGn1UujM1KB7TH-94">
          <mxGeometry width="50" height="50" relative="1" as="geometry">
            <mxPoint x="1530" y="1780" as="sourcePoint" />
            <mxPoint x="1620" y="1763" as="targetPoint" />
          </mxGeometry>
        </mxCell>
        <mxCell id="1DMc-ccGn1UujM1KB7TH-266" style="edgeStyle=orthogonalEdgeStyle;rounded=0;orthogonalLoop=1;jettySize=auto;html=1;exitX=1;exitY=0.5;exitDx=0;exitDy=0;entryX=0;entryY=0.5;entryDx=0;entryDy=0;" edge="1" parent="1" source="1DMc-ccGn1UujM1KB7TH-94" target="1DMc-ccGn1UujM1KB7TH-193">
          <mxGeometry relative="1" as="geometry" />
        </mxCell>
        <mxCell id="1DMc-ccGn1UujM1KB7TH-94" value="&lt;div&gt;13&lt;/div&gt;" style="ellipse;whiteSpace=wrap;html=1;aspect=fixed;" vertex="1" parent="1">
          <mxGeometry x="1630" y="1719" width="70" height="70" as="geometry" />
        </mxCell>
        <mxCell id="1DMc-ccGn1UujM1KB7TH-95" value="4" style="text;html=1;align=center;verticalAlign=middle;whiteSpace=wrap;rounded=0;" vertex="1" parent="1">
          <mxGeometry x="1635" y="1689" width="60" height="30" as="geometry" />
        </mxCell>
        <mxCell id="1DMc-ccGn1UujM1KB7TH-96" value="" style="endArrow=none;html=1;rounded=0;entryX=0.75;entryY=0;entryDx=0;entryDy=0;" edge="1" parent="1" target="1DMc-ccGn1UujM1KB7TH-98">
          <mxGeometry width="50" height="50" relative="1" as="geometry">
            <mxPoint x="1664.71" y="1870" as="sourcePoint" />
            <mxPoint x="1664.71" y="1810" as="targetPoint" />
          </mxGeometry>
        </mxCell>
        <mxCell id="1DMc-ccGn1UujM1KB7TH-97" value="" style="endArrow=none;html=1;rounded=0;" edge="1" parent="1">
          <mxGeometry width="50" height="50" relative="1" as="geometry">
            <mxPoint x="1630" y="1829.43" as="sourcePoint" />
            <mxPoint x="1700" y="1829.43" as="targetPoint" />
          </mxGeometry>
        </mxCell>
        <mxCell id="1DMc-ccGn1UujM1KB7TH-98" value="59" style="text;html=1;align=center;verticalAlign=middle;whiteSpace=wrap;rounded=0;" vertex="1" parent="1">
          <mxGeometry x="1620" y="1800" width="60" height="30" as="geometry" />
        </mxCell>
        <mxCell id="1DMc-ccGn1UujM1KB7TH-99" value="63" style="text;html=1;align=center;verticalAlign=middle;whiteSpace=wrap;rounded=0;" vertex="1" parent="1">
          <mxGeometry x="1650" y="1800" width="60" height="30" as="geometry" />
        </mxCell>
        <mxCell id="1DMc-ccGn1UujM1KB7TH-260" style="edgeStyle=orthogonalEdgeStyle;rounded=0;orthogonalLoop=1;jettySize=auto;html=1;entryX=1;entryY=0.5;entryDx=0;entryDy=0;" edge="1" parent="1" source="1DMc-ccGn1UujM1KB7TH-101" target="1DMc-ccGn1UujM1KB7TH-193">
          <mxGeometry relative="1" as="geometry" />
        </mxCell>
        <mxCell id="1DMc-ccGn1UujM1KB7TH-269" style="edgeStyle=orthogonalEdgeStyle;rounded=0;orthogonalLoop=1;jettySize=auto;html=1;entryX=1;entryY=1;entryDx=0;entryDy=0;" edge="1" parent="1" source="1DMc-ccGn1UujM1KB7TH-101" target="1DMc-ccGn1UujM1KB7TH-193">
          <mxGeometry relative="1" as="geometry" />
        </mxCell>
        <mxCell id="1DMc-ccGn1UujM1KB7TH-101" value="&lt;div&gt;13&lt;/div&gt;" style="ellipse;whiteSpace=wrap;html=1;aspect=fixed;" vertex="1" parent="1">
          <mxGeometry x="1405" y="2360" width="70" height="70" as="geometry" />
        </mxCell>
        <mxCell id="1DMc-ccGn1UujM1KB7TH-102" value="4" style="text;html=1;align=center;verticalAlign=middle;whiteSpace=wrap;rounded=0;" vertex="1" parent="1">
          <mxGeometry x="1410" y="2320" width="60" height="30" as="geometry" />
        </mxCell>
        <mxCell id="1DMc-ccGn1UujM1KB7TH-103" value="" style="endArrow=none;html=1;rounded=0;" edge="1" parent="1">
          <mxGeometry width="50" height="50" relative="1" as="geometry">
            <mxPoint x="1440" y="2520" as="sourcePoint" />
            <mxPoint x="1440" y="2450" as="targetPoint" />
          </mxGeometry>
        </mxCell>
        <mxCell id="1DMc-ccGn1UujM1KB7TH-104" value="" style="endArrow=none;html=1;rounded=0;" edge="1" parent="1">
          <mxGeometry width="50" height="50" relative="1" as="geometry">
            <mxPoint x="1400" y="2479.31" as="sourcePoint" />
            <mxPoint x="1470" y="2479.31" as="targetPoint" />
          </mxGeometry>
        </mxCell>
        <mxCell id="1DMc-ccGn1UujM1KB7TH-105" value="35" style="text;html=1;align=center;verticalAlign=middle;whiteSpace=wrap;rounded=0;" vertex="1" parent="1">
          <mxGeometry x="1390" y="2450" width="60" height="30" as="geometry" />
        </mxCell>
        <mxCell id="1DMc-ccGn1UujM1KB7TH-106" value="39" style="text;html=1;align=center;verticalAlign=middle;whiteSpace=wrap;rounded=0;" vertex="1" parent="1">
          <mxGeometry x="1430" y="2450" width="60" height="30" as="geometry" />
        </mxCell>
        <mxCell id="1DMc-ccGn1UujM1KB7TH-107" value="" style="endArrow=classic;html=1;rounded=0;entryX=0;entryY=1;entryDx=0;entryDy=0;exitX=0.692;exitY=0.065;exitDx=0;exitDy=0;exitPerimeter=0;" edge="1" parent="1" source="1DMc-ccGn1UujM1KB7TH-73" target="1DMc-ccGn1UujM1KB7TH-108">
          <mxGeometry width="50" height="50" relative="1" as="geometry">
            <mxPoint x="1300" y="2360" as="sourcePoint" />
            <mxPoint x="1410" y="2240" as="targetPoint" />
          </mxGeometry>
        </mxCell>
        <mxCell id="1DMc-ccGn1UujM1KB7TH-268" style="edgeStyle=orthogonalEdgeStyle;rounded=0;orthogonalLoop=1;jettySize=auto;html=1;entryX=1;entryY=0.5;entryDx=0;entryDy=0;" edge="1" parent="1" source="1DMc-ccGn1UujM1KB7TH-108" target="1DMc-ccGn1UujM1KB7TH-193">
          <mxGeometry relative="1" as="geometry" />
        </mxCell>
        <mxCell id="1DMc-ccGn1UujM1KB7TH-108" value="&lt;div&gt;15&lt;/div&gt;" style="ellipse;whiteSpace=wrap;html=1;aspect=fixed;" vertex="1" parent="1">
          <mxGeometry x="1430" y="2170" width="70" height="70" as="geometry" />
        </mxCell>
        <mxCell id="1DMc-ccGn1UujM1KB7TH-109" value="" style="endArrow=none;html=1;rounded=0;exitX=0.912;exitY=0;exitDx=0;exitDy=0;exitPerimeter=0;" edge="1" parent="1" source="1DMc-ccGn1UujM1KB7TH-102">
          <mxGeometry width="50" height="50" relative="1" as="geometry">
            <mxPoint x="1465" y="2310" as="sourcePoint" />
            <mxPoint x="1464.71" y="2250" as="targetPoint" />
          </mxGeometry>
        </mxCell>
        <mxCell id="1DMc-ccGn1UujM1KB7TH-110" value="" style="endArrow=none;html=1;rounded=0;entryX=0;entryY=1;entryDx=0;entryDy=0;" edge="1" parent="1">
          <mxGeometry width="50" height="50" relative="1" as="geometry">
            <mxPoint x="1430" y="2280" as="sourcePoint" />
            <mxPoint x="1495" y="2280" as="targetPoint" />
          </mxGeometry>
        </mxCell>
        <mxCell id="1DMc-ccGn1UujM1KB7TH-111" value="35" style="text;html=1;align=center;verticalAlign=middle;whiteSpace=wrap;rounded=0;" vertex="1" parent="1">
          <mxGeometry x="1420" y="2250" width="60" height="30" as="geometry" />
        </mxCell>
        <mxCell id="1DMc-ccGn1UujM1KB7TH-112" value="200" style="text;html=1;align=center;verticalAlign=middle;whiteSpace=wrap;rounded=0;" vertex="1" parent="1">
          <mxGeometry x="1430" y="2140" width="60" height="30" as="geometry" />
        </mxCell>
        <mxCell id="1DMc-ccGn1UujM1KB7TH-113" value="235" style="text;html=1;align=center;verticalAlign=middle;whiteSpace=wrap;rounded=0;" vertex="1" parent="1">
          <mxGeometry x="1450" y="2250" width="60" height="30" as="geometry" />
        </mxCell>
        <mxCell id="1DMc-ccGn1UujM1KB7TH-114" value="" style="endArrow=classic;html=1;rounded=0;exitX=0.739;exitY=0.915;exitDx=0;exitDy=0;entryX=0.357;entryY=0;entryDx=0;entryDy=0;entryPerimeter=0;exitPerimeter=0;" edge="1" parent="1" source="1DMc-ccGn1UujM1KB7TH-73" target="1DMc-ccGn1UujM1KB7TH-115">
          <mxGeometry width="50" height="50" relative="1" as="geometry">
            <mxPoint x="1390" y="2590" as="sourcePoint" />
            <mxPoint x="1430" y="2580" as="targetPoint" />
          </mxGeometry>
        </mxCell>
        <mxCell id="1DMc-ccGn1UujM1KB7TH-259" style="edgeStyle=orthogonalEdgeStyle;rounded=0;orthogonalLoop=1;jettySize=auto;html=1;entryX=1;entryY=1;entryDx=0;entryDy=0;" edge="1" parent="1" source="1DMc-ccGn1UujM1KB7TH-115" target="1DMc-ccGn1UujM1KB7TH-193">
          <mxGeometry relative="1" as="geometry" />
        </mxCell>
        <mxCell id="1DMc-ccGn1UujM1KB7TH-115" value="&lt;div&gt;16&lt;/div&gt;" style="ellipse;whiteSpace=wrap;html=1;aspect=fixed;" vertex="1" parent="1">
          <mxGeometry x="1405" y="2600" width="70" height="70" as="geometry" />
        </mxCell>
        <mxCell id="1DMc-ccGn1UujM1KB7TH-116" value="200" style="text;html=1;align=center;verticalAlign=middle;whiteSpace=wrap;rounded=0;" vertex="1" parent="1">
          <mxGeometry x="1420" y="2560" width="60" height="30" as="geometry" />
        </mxCell>
        <mxCell id="1DMc-ccGn1UujM1KB7TH-117" value="" style="endArrow=none;html=1;rounded=0;entryX=0.173;entryY=-0.077;entryDx=0;entryDy=0;entryPerimeter=0;" edge="1" parent="1" target="1DMc-ccGn1UujM1KB7TH-120">
          <mxGeometry width="50" height="50" relative="1" as="geometry">
            <mxPoint x="1440" y="2770" as="sourcePoint" />
            <mxPoint x="1440" y="2680" as="targetPoint" />
          </mxGeometry>
        </mxCell>
        <mxCell id="1DMc-ccGn1UujM1KB7TH-118" value="" style="endArrow=none;html=1;rounded=0;" edge="1" parent="1">
          <mxGeometry width="50" height="50" relative="1" as="geometry">
            <mxPoint x="1400" y="2720" as="sourcePoint" />
            <mxPoint x="1480" y="2720" as="targetPoint" />
          </mxGeometry>
        </mxCell>
        <mxCell id="1DMc-ccGn1UujM1KB7TH-119" value="35" style="text;html=1;align=center;verticalAlign=middle;whiteSpace=wrap;rounded=0;" vertex="1" parent="1">
          <mxGeometry x="1390" y="2690" width="60" height="30" as="geometry" />
        </mxCell>
        <mxCell id="1DMc-ccGn1UujM1KB7TH-120" value="235" style="text;html=1;align=center;verticalAlign=middle;whiteSpace=wrap;rounded=0;" vertex="1" parent="1">
          <mxGeometry x="1430" y="2690" width="60" height="30" as="geometry" />
        </mxCell>
        <mxCell id="1DMc-ccGn1UujM1KB7TH-121" value="" style="endArrow=classic;html=1;rounded=0;entryX=0;entryY=0.5;entryDx=0;entryDy=0;" edge="1" parent="1" target="1DMc-ccGn1UujM1KB7TH-122">
          <mxGeometry width="50" height="50" relative="1" as="geometry">
            <mxPoint x="1160" y="2923" as="sourcePoint" />
            <mxPoint x="1260" y="2920" as="targetPoint" />
          </mxGeometry>
        </mxCell>
        <mxCell id="1DMc-ccGn1UujM1KB7TH-296" style="edgeStyle=orthogonalEdgeStyle;rounded=0;orthogonalLoop=1;jettySize=auto;html=1;exitX=1;exitY=0.5;exitDx=0;exitDy=0;entryX=0;entryY=0.5;entryDx=0;entryDy=0;" edge="1" parent="1" source="1DMc-ccGn1UujM1KB7TH-122" target="1DMc-ccGn1UujM1KB7TH-150">
          <mxGeometry relative="1" as="geometry" />
        </mxCell>
        <mxCell id="1DMc-ccGn1UujM1KB7TH-122" value="&lt;div&gt;12&lt;/div&gt;" style="ellipse;whiteSpace=wrap;html=1;aspect=fixed;" vertex="1" parent="1">
          <mxGeometry x="1270" y="2888" width="70" height="70" as="geometry" />
        </mxCell>
        <mxCell id="1DMc-ccGn1UujM1KB7TH-123" value="32" style="text;html=1;align=center;verticalAlign=middle;whiteSpace=wrap;rounded=0;" vertex="1" parent="1">
          <mxGeometry x="1270" y="2850" width="60" height="30" as="geometry" />
        </mxCell>
        <mxCell id="1DMc-ccGn1UujM1KB7TH-124" value="" style="endArrow=none;html=1;rounded=0;" edge="1" parent="1">
          <mxGeometry width="50" height="50" relative="1" as="geometry">
            <mxPoint x="1299.55" y="3070" as="sourcePoint" />
            <mxPoint x="1299.55" y="2980" as="targetPoint" />
          </mxGeometry>
        </mxCell>
        <mxCell id="1DMc-ccGn1UujM1KB7TH-125" value="" style="endArrow=none;html=1;rounded=0;" edge="1" parent="1">
          <mxGeometry width="50" height="50" relative="1" as="geometry">
            <mxPoint x="1260" y="3010" as="sourcePoint" />
            <mxPoint x="1340" y="3010" as="targetPoint" />
          </mxGeometry>
        </mxCell>
        <mxCell id="1DMc-ccGn1UujM1KB7TH-126" value="3" style="text;html=1;align=center;verticalAlign=middle;whiteSpace=wrap;rounded=0;" vertex="1" parent="1">
          <mxGeometry x="1255" y="2980" width="60" height="30" as="geometry" />
        </mxCell>
        <mxCell id="1DMc-ccGn1UujM1KB7TH-127" value="35" style="text;html=1;align=center;verticalAlign=middle;whiteSpace=wrap;rounded=0;" vertex="1" parent="1">
          <mxGeometry x="1290" y="2980" width="60" height="30" as="geometry" />
        </mxCell>
        <mxCell id="1DMc-ccGn1UujM1KB7TH-128" value="" style="endArrow=classic;html=1;rounded=0;exitX=1.019;exitY=0.576;exitDx=0;exitDy=0;exitPerimeter=0;entryX=-0.036;entryY=0.576;entryDx=0;entryDy=0;entryPerimeter=0;" edge="1" parent="1" source="1DMc-ccGn1UujM1KB7TH-51" target="1DMc-ccGn1UujM1KB7TH-129">
          <mxGeometry width="50" height="50" relative="1" as="geometry">
            <mxPoint x="1360" y="1530" as="sourcePoint" />
            <mxPoint x="1420" y="1520" as="targetPoint" />
          </mxGeometry>
        </mxCell>
        <mxCell id="1DMc-ccGn1UujM1KB7TH-264" style="edgeStyle=orthogonalEdgeStyle;rounded=0;orthogonalLoop=1;jettySize=auto;html=1;entryX=0;entryY=0.5;entryDx=0;entryDy=0;" edge="1" parent="1" source="1DMc-ccGn1UujM1KB7TH-129" target="1DMc-ccGn1UujM1KB7TH-193">
          <mxGeometry relative="1" as="geometry" />
        </mxCell>
        <mxCell id="1DMc-ccGn1UujM1KB7TH-129" value="13" style="ellipse;whiteSpace=wrap;html=1;aspect=fixed;" vertex="1" parent="1">
          <mxGeometry x="1435" y="1440" width="70" height="70" as="geometry" />
        </mxCell>
        <mxCell id="1DMc-ccGn1UujM1KB7TH-130" value="" style="endArrow=none;html=1;rounded=0;" edge="1" parent="1">
          <mxGeometry width="50" height="50" relative="1" as="geometry">
            <mxPoint x="1469.13" y="1590" as="sourcePoint" />
            <mxPoint x="1469.13" y="1520" as="targetPoint" />
          </mxGeometry>
        </mxCell>
        <mxCell id="1DMc-ccGn1UujM1KB7TH-131" value="" style="endArrow=none;html=1;rounded=0;" edge="1" parent="1">
          <mxGeometry width="50" height="50" relative="1" as="geometry">
            <mxPoint x="1425" y="1549.13" as="sourcePoint" />
            <mxPoint x="1505" y="1549.13" as="targetPoint" />
          </mxGeometry>
        </mxCell>
        <mxCell id="1DMc-ccGn1UujM1KB7TH-132" value="43" style="text;html=1;align=center;verticalAlign=middle;whiteSpace=wrap;rounded=0;" vertex="1" parent="1">
          <mxGeometry x="1420" y="1520" width="60" height="30" as="geometry" />
        </mxCell>
        <mxCell id="1DMc-ccGn1UujM1KB7TH-133" value="4" style="text;html=1;align=center;verticalAlign=middle;whiteSpace=wrap;rounded=0;" vertex="1" parent="1">
          <mxGeometry x="1445" y="1410" width="60" height="30" as="geometry" />
        </mxCell>
        <mxCell id="1DMc-ccGn1UujM1KB7TH-134" value="47" style="text;html=1;align=center;verticalAlign=middle;whiteSpace=wrap;rounded=0;" vertex="1" parent="1">
          <mxGeometry x="1455" y="1520" width="60" height="30" as="geometry" />
        </mxCell>
        <mxCell id="1DMc-ccGn1UujM1KB7TH-135" value="" style="endArrow=classic;html=1;rounded=0;exitX=1;exitY=0;exitDx=0;exitDy=0;" edge="1" parent="1" source="1DMc-ccGn1UujM1KB7TH-51" target="1DMc-ccGn1UujM1KB7TH-136">
          <mxGeometry width="50" height="50" relative="1" as="geometry">
            <mxPoint x="1330" y="1490" as="sourcePoint" />
            <mxPoint x="1470" y="1340" as="targetPoint" />
          </mxGeometry>
        </mxCell>
        <mxCell id="1DMc-ccGn1UujM1KB7TH-263" style="edgeStyle=orthogonalEdgeStyle;rounded=0;orthogonalLoop=1;jettySize=auto;html=1;entryX=1;entryY=1;entryDx=0;entryDy=0;" edge="1" parent="1" source="1DMc-ccGn1UujM1KB7TH-136" target="1DMc-ccGn1UujM1KB7TH-193">
          <mxGeometry relative="1" as="geometry" />
        </mxCell>
        <mxCell id="1DMc-ccGn1UujM1KB7TH-136" value="15" style="ellipse;whiteSpace=wrap;html=1;aspect=fixed;" vertex="1" parent="1">
          <mxGeometry x="1440" y="1250" width="70" height="70" as="geometry" />
        </mxCell>
        <mxCell id="1DMc-ccGn1UujM1KB7TH-137" value="200" style="text;html=1;align=center;verticalAlign=middle;whiteSpace=wrap;rounded=0;" vertex="1" parent="1">
          <mxGeometry x="1440" y="1220" width="60" height="30" as="geometry" />
        </mxCell>
        <mxCell id="1DMc-ccGn1UujM1KB7TH-138" value="" style="endArrow=none;html=1;rounded=0;" edge="1" parent="1">
          <mxGeometry width="50" height="50" relative="1" as="geometry">
            <mxPoint x="1470" y="1380" as="sourcePoint" />
            <mxPoint x="1470" y="1330" as="targetPoint" />
          </mxGeometry>
        </mxCell>
        <mxCell id="1DMc-ccGn1UujM1KB7TH-139" value="" style="endArrow=none;html=1;rounded=0;" edge="1" parent="1">
          <mxGeometry width="50" height="50" relative="1" as="geometry">
            <mxPoint x="1430" y="1360" as="sourcePoint" />
            <mxPoint x="1510" y="1360" as="targetPoint" />
          </mxGeometry>
        </mxCell>
        <mxCell id="1DMc-ccGn1UujM1KB7TH-140" value="43" style="text;html=1;align=center;verticalAlign=middle;whiteSpace=wrap;rounded=0;" vertex="1" parent="1">
          <mxGeometry x="1420" y="1330" width="60" height="30" as="geometry" />
        </mxCell>
        <mxCell id="1DMc-ccGn1UujM1KB7TH-141" value="243" style="text;html=1;align=center;verticalAlign=middle;whiteSpace=wrap;rounded=0;" vertex="1" parent="1">
          <mxGeometry x="1460" y="1330" width="60" height="30" as="geometry" />
        </mxCell>
        <mxCell id="1DMc-ccGn1UujM1KB7TH-142" value="" style="endArrow=classic;html=1;rounded=0;entryX=0.357;entryY=0;entryDx=0;entryDy=0;entryPerimeter=0;" edge="1" parent="1" source="1DMc-ccGn1UujM1KB7TH-51" target="1DMc-ccGn1UujM1KB7TH-143">
          <mxGeometry width="50" height="50" relative="1" as="geometry">
            <mxPoint x="1330" y="1650" as="sourcePoint" />
            <mxPoint x="1410" y="1590" as="targetPoint" />
          </mxGeometry>
        </mxCell>
        <mxCell id="1DMc-ccGn1UujM1KB7TH-265" style="edgeStyle=orthogonalEdgeStyle;rounded=0;orthogonalLoop=1;jettySize=auto;html=1;exitX=1;exitY=0.5;exitDx=0;exitDy=0;entryX=0;entryY=0.5;entryDx=0;entryDy=0;" edge="1" parent="1" source="1DMc-ccGn1UujM1KB7TH-143" target="1DMc-ccGn1UujM1KB7TH-193">
          <mxGeometry relative="1" as="geometry" />
        </mxCell>
        <mxCell id="1DMc-ccGn1UujM1KB7TH-143" value="16" style="ellipse;whiteSpace=wrap;html=1;aspect=fixed;" vertex="1" parent="1">
          <mxGeometry x="1360" y="1600" width="70" height="70" as="geometry" />
        </mxCell>
        <mxCell id="1DMc-ccGn1UujM1KB7TH-144" value="200" style="text;html=1;align=center;verticalAlign=middle;whiteSpace=wrap;rounded=0;" vertex="1" parent="1">
          <mxGeometry x="1370" y="1570" width="60" height="30" as="geometry" />
        </mxCell>
        <mxCell id="1DMc-ccGn1UujM1KB7TH-145" value="" style="endArrow=none;html=1;rounded=0;entryX=0.656;entryY=0.122;entryDx=0;entryDy=0;entryPerimeter=0;" edge="1" parent="1" target="1DMc-ccGn1UujM1KB7TH-147">
          <mxGeometry width="50" height="50" relative="1" as="geometry">
            <mxPoint x="1400" y="1730" as="sourcePoint" />
            <mxPoint x="1400" y="1680" as="targetPoint" />
          </mxGeometry>
        </mxCell>
        <mxCell id="1DMc-ccGn1UujM1KB7TH-146" value="" style="endArrow=none;html=1;rounded=0;" edge="1" parent="1">
          <mxGeometry width="50" height="50" relative="1" as="geometry">
            <mxPoint x="1375" y="1694.72" as="sourcePoint" />
            <mxPoint x="1425" y="1694.72" as="targetPoint" />
          </mxGeometry>
        </mxCell>
        <mxCell id="1DMc-ccGn1UujM1KB7TH-147" value="43" style="text;html=1;align=center;verticalAlign=middle;whiteSpace=wrap;rounded=0;" vertex="1" parent="1">
          <mxGeometry x="1360" y="1670" width="60" height="30" as="geometry" />
        </mxCell>
        <mxCell id="1DMc-ccGn1UujM1KB7TH-148" value="243" style="text;html=1;align=center;verticalAlign=middle;whiteSpace=wrap;rounded=0;" vertex="1" parent="1">
          <mxGeometry x="1385" y="1670" width="60" height="30" as="geometry" />
        </mxCell>
        <mxCell id="1DMc-ccGn1UujM1KB7TH-258" style="edgeStyle=orthogonalEdgeStyle;rounded=0;orthogonalLoop=1;jettySize=auto;html=1;entryX=0.5;entryY=1;entryDx=0;entryDy=0;" edge="1" parent="1" source="1DMc-ccGn1UujM1KB7TH-150" target="1DMc-ccGn1UujM1KB7TH-193">
          <mxGeometry relative="1" as="geometry" />
        </mxCell>
        <mxCell id="1DMc-ccGn1UujM1KB7TH-150" value="&lt;div&gt;13&lt;/div&gt;" style="ellipse;whiteSpace=wrap;html=1;aspect=fixed;" vertex="1" parent="1">
          <mxGeometry x="1435" y="2888" width="70" height="70" as="geometry" />
        </mxCell>
        <mxCell id="1DMc-ccGn1UujM1KB7TH-151" value="" style="endArrow=none;html=1;rounded=0;" edge="1" parent="1">
          <mxGeometry width="50" height="50" relative="1" as="geometry">
            <mxPoint x="1470" y="3070" as="sourcePoint" />
            <mxPoint x="1470" y="2980" as="targetPoint" />
          </mxGeometry>
        </mxCell>
        <mxCell id="1DMc-ccGn1UujM1KB7TH-152" value="" style="endArrow=none;html=1;rounded=0;" edge="1" parent="1">
          <mxGeometry width="50" height="50" relative="1" as="geometry">
            <mxPoint x="1435" y="3009.2" as="sourcePoint" />
            <mxPoint x="1505" y="3009.2" as="targetPoint" />
          </mxGeometry>
        </mxCell>
        <mxCell id="1DMc-ccGn1UujM1KB7TH-153" value="35" style="text;html=1;align=center;verticalAlign=middle;whiteSpace=wrap;rounded=0;" vertex="1" parent="1">
          <mxGeometry x="1420" y="2980" width="60" height="30" as="geometry" />
        </mxCell>
        <mxCell id="1DMc-ccGn1UujM1KB7TH-154" value="39" style="text;html=1;align=center;verticalAlign=middle;whiteSpace=wrap;rounded=0;" vertex="1" parent="1">
          <mxGeometry x="1455" y="2980" width="60" height="30" as="geometry" />
        </mxCell>
        <mxCell id="1DMc-ccGn1UujM1KB7TH-155" value="4" style="text;html=1;align=center;verticalAlign=middle;whiteSpace=wrap;rounded=0;" vertex="1" parent="1">
          <mxGeometry x="1440" y="2850" width="60" height="30" as="geometry" />
        </mxCell>
        <mxCell id="1DMc-ccGn1UujM1KB7TH-156" value="" style="endArrow=classic;html=1;rounded=0;exitX=0.973;exitY=0.295;exitDx=0;exitDy=0;exitPerimeter=0;entryX=0.031;entryY=0.7;entryDx=0;entryDy=0;entryPerimeter=0;" edge="1" parent="1" source="1DMc-ccGn1UujM1KB7TH-65" target="1DMc-ccGn1UujM1KB7TH-157">
          <mxGeometry width="50" height="50" relative="1" as="geometry">
            <mxPoint x="1350" y="1200" as="sourcePoint" />
            <mxPoint x="1400" y="1150" as="targetPoint" />
          </mxGeometry>
        </mxCell>
        <mxCell id="1DMc-ccGn1UujM1KB7TH-262" style="edgeStyle=orthogonalEdgeStyle;rounded=0;orthogonalLoop=1;jettySize=auto;html=1;entryX=0.5;entryY=1;entryDx=0;entryDy=0;" edge="1" parent="1" source="1DMc-ccGn1UujM1KB7TH-157" target="1DMc-ccGn1UujM1KB7TH-193">
          <mxGeometry relative="1" as="geometry" />
        </mxCell>
        <mxCell id="1DMc-ccGn1UujM1KB7TH-157" value="13" style="ellipse;whiteSpace=wrap;html=1;aspect=fixed;" vertex="1" parent="1">
          <mxGeometry x="1405" y="1078" width="70" height="70" as="geometry" />
        </mxCell>
        <mxCell id="1DMc-ccGn1UujM1KB7TH-158" value="4" style="text;html=1;align=center;verticalAlign=middle;whiteSpace=wrap;rounded=0;" vertex="1" parent="1">
          <mxGeometry x="1410" y="1048" width="60" height="30" as="geometry" />
        </mxCell>
        <mxCell id="1DMc-ccGn1UujM1KB7TH-159" value="" style="endArrow=none;html=1;rounded=0;" edge="1" parent="1">
          <mxGeometry width="50" height="50" relative="1" as="geometry">
            <mxPoint x="1440" y="1217" as="sourcePoint" />
            <mxPoint x="1440" y="1169" as="targetPoint" />
          </mxGeometry>
        </mxCell>
        <mxCell id="1DMc-ccGn1UujM1KB7TH-160" value="" style="endArrow=none;html=1;rounded=0;" edge="1" parent="1">
          <mxGeometry width="50" height="50" relative="1" as="geometry">
            <mxPoint x="1420" y="1190" as="sourcePoint" />
            <mxPoint x="1460" y="1190" as="targetPoint" />
          </mxGeometry>
        </mxCell>
        <mxCell id="1DMc-ccGn1UujM1KB7TH-161" value="51" style="text;html=1;align=center;verticalAlign=middle;whiteSpace=wrap;rounded=0;" vertex="1" parent="1">
          <mxGeometry x="1400" y="1160" width="60" height="30" as="geometry" />
        </mxCell>
        <mxCell id="1DMc-ccGn1UujM1KB7TH-162" value="55" style="text;html=1;align=center;verticalAlign=middle;whiteSpace=wrap;rounded=0;" vertex="1" parent="1">
          <mxGeometry x="1420" y="1160" width="60" height="30" as="geometry" />
        </mxCell>
        <mxCell id="1DMc-ccGn1UujM1KB7TH-163" value="" style="endArrow=none;html=1;rounded=0;endFill=0;" edge="1" parent="1">
          <mxGeometry width="50" height="50" relative="1" as="geometry">
            <mxPoint x="680" y="860" as="sourcePoint" />
            <mxPoint x="680" y="80" as="targetPoint" />
          </mxGeometry>
        </mxCell>
        <mxCell id="1DMc-ccGn1UujM1KB7TH-164" value="" style="endArrow=classic;html=1;rounded=0;entryX=-0.043;entryY=0.566;entryDx=0;entryDy=0;entryPerimeter=0;" edge="1" parent="1" target="1DMc-ccGn1UujM1KB7TH-165">
          <mxGeometry width="50" height="50" relative="1" as="geometry">
            <mxPoint x="680" y="80" as="sourcePoint" />
            <mxPoint x="790" y="80" as="targetPoint" />
          </mxGeometry>
        </mxCell>
        <mxCell id="1DMc-ccGn1UujM1KB7TH-165" value="14" style="ellipse;whiteSpace=wrap;html=1;aspect=fixed;" vertex="1" parent="1">
          <mxGeometry x="810" y="40" width="70" height="70" as="geometry" />
        </mxCell>
        <mxCell id="1DMc-ccGn1UujM1KB7TH-166" value="" style="endArrow=none;html=1;rounded=0;" edge="1" parent="1">
          <mxGeometry width="50" height="50" relative="1" as="geometry">
            <mxPoint x="845" y="190" as="sourcePoint" />
            <mxPoint x="845" y="120" as="targetPoint" />
          </mxGeometry>
        </mxCell>
        <mxCell id="1DMc-ccGn1UujM1KB7TH-167" value="" style="endArrow=none;html=1;rounded=0;" edge="1" parent="1">
          <mxGeometry width="50" height="50" relative="1" as="geometry">
            <mxPoint x="810" y="150" as="sourcePoint" />
            <mxPoint x="880" y="150" as="targetPoint" />
          </mxGeometry>
        </mxCell>
        <mxCell id="1DMc-ccGn1UujM1KB7TH-168" value="240" style="text;html=1;align=center;verticalAlign=middle;whiteSpace=wrap;rounded=0;" vertex="1" parent="1">
          <mxGeometry x="815" y="10" width="60" height="30" as="geometry" />
        </mxCell>
        <mxCell id="1DMc-ccGn1UujM1KB7TH-169" value="0" style="text;html=1;align=center;verticalAlign=middle;whiteSpace=wrap;rounded=0;" vertex="1" parent="1">
          <mxGeometry x="800" y="120" width="60" height="30" as="geometry" />
        </mxCell>
        <mxCell id="1DMc-ccGn1UujM1KB7TH-170" value="240" style="text;html=1;align=center;verticalAlign=middle;whiteSpace=wrap;rounded=0;" vertex="1" parent="1">
          <mxGeometry x="840" y="120" width="60" height="30" as="geometry" />
        </mxCell>
        <mxCell id="1DMc-ccGn1UujM1KB7TH-171" value="" style="endArrow=classic;html=1;rounded=0;exitX=1.022;exitY=0.594;exitDx=0;exitDy=0;exitPerimeter=0;entryX=0.001;entryY=0.566;entryDx=0;entryDy=0;entryPerimeter=0;" edge="1" parent="1" source="1DMc-ccGn1UujM1KB7TH-165" target="1DMc-ccGn1UujM1KB7TH-172">
          <mxGeometry width="50" height="50" relative="1" as="geometry">
            <mxPoint x="900" y="90" as="sourcePoint" />
            <mxPoint x="940" y="80" as="targetPoint" />
          </mxGeometry>
        </mxCell>
        <mxCell id="1DMc-ccGn1UujM1KB7TH-252" style="edgeStyle=orthogonalEdgeStyle;rounded=0;orthogonalLoop=1;jettySize=auto;html=1;entryX=0;entryY=0;entryDx=0;entryDy=0;" edge="1" parent="1" source="1DMc-ccGn1UujM1KB7TH-172" target="1DMc-ccGn1UujM1KB7TH-193">
          <mxGeometry relative="1" as="geometry" />
        </mxCell>
        <mxCell id="1DMc-ccGn1UujM1KB7TH-172" value="17" style="ellipse;whiteSpace=wrap;html=1;aspect=fixed;" vertex="1" parent="1">
          <mxGeometry x="960" y="40" width="70" height="70" as="geometry" />
        </mxCell>
        <mxCell id="1DMc-ccGn1UujM1KB7TH-173" value="8" style="text;html=1;align=center;verticalAlign=middle;whiteSpace=wrap;rounded=0;" vertex="1" parent="1">
          <mxGeometry x="965" y="10" width="60" height="30" as="geometry" />
        </mxCell>
        <mxCell id="1DMc-ccGn1UujM1KB7TH-174" value="" style="endArrow=none;html=1;rounded=0;" edge="1" parent="1">
          <mxGeometry width="50" height="50" relative="1" as="geometry">
            <mxPoint x="994.35" y="190" as="sourcePoint" />
            <mxPoint x="994.35" y="120" as="targetPoint" />
          </mxGeometry>
        </mxCell>
        <mxCell id="1DMc-ccGn1UujM1KB7TH-175" value="" style="endArrow=none;html=1;rounded=0;" edge="1" parent="1">
          <mxGeometry width="50" height="50" relative="1" as="geometry">
            <mxPoint x="960" y="149" as="sourcePoint" />
            <mxPoint x="1030" y="150" as="targetPoint" />
          </mxGeometry>
        </mxCell>
        <mxCell id="1DMc-ccGn1UujM1KB7TH-176" value="240" style="text;html=1;align=center;verticalAlign=middle;whiteSpace=wrap;rounded=0;" vertex="1" parent="1">
          <mxGeometry x="945" y="120" width="60" height="30" as="geometry" />
        </mxCell>
        <mxCell id="1DMc-ccGn1UujM1KB7TH-177" value="248" style="text;html=1;align=center;verticalAlign=middle;whiteSpace=wrap;rounded=0;" vertex="1" parent="1">
          <mxGeometry x="980" y="120" width="60" height="30" as="geometry" />
        </mxCell>
        <mxCell id="1DMc-ccGn1UujM1KB7TH-178" value="" style="endArrow=classic;html=1;rounded=0;exitX=0.942;exitY=0.729;exitDx=0;exitDy=0;exitPerimeter=0;entryX=0.5;entryY=0;entryDx=0;entryDy=0;" edge="1" parent="1" source="1DMc-ccGn1UujM1KB7TH-165" target="1DMc-ccGn1UujM1KB7TH-179">
          <mxGeometry width="50" height="50" relative="1" as="geometry">
            <mxPoint x="960" y="290" as="sourcePoint" />
            <mxPoint x="980" y="250" as="targetPoint" />
          </mxGeometry>
        </mxCell>
        <mxCell id="1DMc-ccGn1UujM1KB7TH-179" value="18" style="ellipse;whiteSpace=wrap;html=1;aspect=fixed;" vertex="1" parent="1">
          <mxGeometry x="955" y="260" width="70" height="70" as="geometry" />
        </mxCell>
        <mxCell id="1DMc-ccGn1UujM1KB7TH-180" value="8" style="text;html=1;align=center;verticalAlign=middle;whiteSpace=wrap;rounded=0;" vertex="1" parent="1">
          <mxGeometry x="975" y="230" width="60" height="30" as="geometry" />
        </mxCell>
        <mxCell id="1DMc-ccGn1UujM1KB7TH-181" value="" style="endArrow=none;html=1;rounded=0;" edge="1" parent="1">
          <mxGeometry width="50" height="50" relative="1" as="geometry">
            <mxPoint x="1000" y="410" as="sourcePoint" />
            <mxPoint x="1000" y="340" as="targetPoint" />
          </mxGeometry>
        </mxCell>
        <mxCell id="1DMc-ccGn1UujM1KB7TH-182" value="" style="endArrow=none;html=1;rounded=0;" edge="1" parent="1">
          <mxGeometry width="50" height="50" relative="1" as="geometry">
            <mxPoint x="970" y="370" as="sourcePoint" />
            <mxPoint x="1030" y="370" as="targetPoint" />
          </mxGeometry>
        </mxCell>
        <mxCell id="1DMc-ccGn1UujM1KB7TH-183" value="240" style="text;html=1;align=center;verticalAlign=middle;whiteSpace=wrap;rounded=0;" vertex="1" parent="1">
          <mxGeometry x="955" y="340" width="60" height="30" as="geometry" />
        </mxCell>
        <mxCell id="1DMc-ccGn1UujM1KB7TH-184" value="248" style="text;html=1;align=center;verticalAlign=middle;whiteSpace=wrap;rounded=0;" vertex="1" parent="1">
          <mxGeometry x="985" y="340" width="60" height="30" as="geometry" />
        </mxCell>
        <mxCell id="1DMc-ccGn1UujM1KB7TH-251" style="edgeStyle=orthogonalEdgeStyle;rounded=0;orthogonalLoop=1;jettySize=auto;html=1;entryX=0.5;entryY=0;entryDx=0;entryDy=0;" edge="1" parent="1" source="1DMc-ccGn1UujM1KB7TH-185" target="1DMc-ccGn1UujM1KB7TH-193">
          <mxGeometry relative="1" as="geometry" />
        </mxCell>
        <mxCell id="1DMc-ccGn1UujM1KB7TH-185" value="19" style="ellipse;whiteSpace=wrap;html=1;aspect=fixed;" vertex="1" parent="1">
          <mxGeometry x="965" y="-170" width="70" height="70" as="geometry" />
        </mxCell>
        <mxCell id="1DMc-ccGn1UujM1KB7TH-186" value="" style="endArrow=classic;html=1;rounded=0;" edge="1" parent="1" target="1DMc-ccGn1UujM1KB7TH-185">
          <mxGeometry width="50" height="50" relative="1" as="geometry">
            <mxPoint x="860" y="40" as="sourcePoint" />
            <mxPoint x="990" y="-100" as="targetPoint" />
          </mxGeometry>
        </mxCell>
        <mxCell id="1DMc-ccGn1UujM1KB7TH-187" value="8" style="text;html=1;align=center;verticalAlign=middle;whiteSpace=wrap;rounded=0;" vertex="1" parent="1">
          <mxGeometry x="970" y="-200" width="60" height="30" as="geometry" />
        </mxCell>
        <mxCell id="1DMc-ccGn1UujM1KB7TH-188" value="" style="endArrow=none;html=1;rounded=0;" edge="1" parent="1">
          <mxGeometry width="50" height="50" relative="1" as="geometry">
            <mxPoint x="995" y="-20" as="sourcePoint" />
            <mxPoint x="995" y="-90" as="targetPoint" />
          </mxGeometry>
        </mxCell>
        <mxCell id="1DMc-ccGn1UujM1KB7TH-189" value="" style="endArrow=none;html=1;rounded=0;" edge="1" parent="1">
          <mxGeometry width="50" height="50" relative="1" as="geometry">
            <mxPoint x="960" y="-60" as="sourcePoint" />
            <mxPoint x="1030" y="-60" as="targetPoint" />
          </mxGeometry>
        </mxCell>
        <mxCell id="1DMc-ccGn1UujM1KB7TH-190" value="240" style="text;html=1;align=center;verticalAlign=middle;whiteSpace=wrap;rounded=0;" vertex="1" parent="1">
          <mxGeometry x="950" y="-90" width="60" height="30" as="geometry" />
        </mxCell>
        <mxCell id="1DMc-ccGn1UujM1KB7TH-191" value="248" style="text;html=1;align=center;verticalAlign=middle;whiteSpace=wrap;rounded=0;" vertex="1" parent="1">
          <mxGeometry x="985" y="-90" width="60" height="30" as="geometry" />
        </mxCell>
        <mxCell id="1DMc-ccGn1UujM1KB7TH-193" value="FIN" style="ellipse;whiteSpace=wrap;html=1;aspect=fixed;" vertex="1" parent="1">
          <mxGeometry x="1850" y="660" width="70" height="70" as="geometry" />
        </mxCell>
        <mxCell id="1DMc-ccGn1UujM1KB7TH-194" value="55" style="text;html=1;align=center;verticalAlign=middle;resizable=0;points=[];autosize=1;strokeColor=none;fillColor=none;" vertex="1" parent="1">
          <mxGeometry x="1435" y="1189" width="40" height="30" as="geometry" />
        </mxCell>
        <mxCell id="1DMc-ccGn1UujM1KB7TH-196" value="51" style="text;html=1;align=center;verticalAlign=middle;resizable=0;points=[];autosize=1;strokeColor=none;fillColor=none;" vertex="1" parent="1">
          <mxGeometry x="1405" y="1189" width="40" height="30" as="geometry" />
        </mxCell>
        <mxCell id="1DMc-ccGn1UujM1KB7TH-197" value="51" style="text;html=1;align=center;verticalAlign=middle;resizable=0;points=[];autosize=1;strokeColor=none;fillColor=none;" vertex="1" parent="1">
          <mxGeometry x="1290" y="1288" width="40" height="30" as="geometry" />
        </mxCell>
        <mxCell id="1DMc-ccGn1UujM1KB7TH-198" value="3" style="text;html=1;align=center;verticalAlign=middle;resizable=0;points=[];autosize=1;strokeColor=none;fillColor=none;" vertex="1" parent="1">
          <mxGeometry x="1265" y="1288" width="30" height="30" as="geometry" />
        </mxCell>
        <mxCell id="1DMc-ccGn1UujM1KB7TH-199" value="243" style="text;html=1;align=center;verticalAlign=middle;resizable=0;points=[];autosize=1;strokeColor=none;fillColor=none;" vertex="1" parent="1">
          <mxGeometry x="1470" y="1370" width="40" height="30" as="geometry" />
        </mxCell>
        <mxCell id="1DMc-ccGn1UujM1KB7TH-200" value="43" style="text;html=1;align=center;verticalAlign=middle;resizable=0;points=[];autosize=1;strokeColor=none;fillColor=none;" vertex="1" parent="1">
          <mxGeometry x="1430" y="1370" width="40" height="30" as="geometry" />
        </mxCell>
        <mxCell id="1DMc-ccGn1UujM1KB7TH-201" value="47" style="text;html=1;align=center;verticalAlign=middle;resizable=0;points=[];autosize=1;strokeColor=none;fillColor=none;" vertex="1" parent="1">
          <mxGeometry x="1475" y="1560" width="40" height="30" as="geometry" />
        </mxCell>
        <mxCell id="1DMc-ccGn1UujM1KB7TH-202" value="43" style="text;html=1;align=center;verticalAlign=middle;resizable=0;points=[];autosize=1;strokeColor=none;fillColor=none;" vertex="1" parent="1">
          <mxGeometry x="1430" y="1560" width="40" height="30" as="geometry" />
        </mxCell>
        <mxCell id="1DMc-ccGn1UujM1KB7TH-203" value="243" style="text;html=1;align=center;verticalAlign=middle;resizable=0;points=[];autosize=1;strokeColor=none;fillColor=none;" vertex="1" parent="1">
          <mxGeometry x="1395" y="1700" width="40" height="30" as="geometry" />
        </mxCell>
        <mxCell id="1DMc-ccGn1UujM1KB7TH-204" value="43" style="text;html=1;align=center;verticalAlign=middle;resizable=0;points=[];autosize=1;strokeColor=none;fillColor=none;" vertex="1" parent="1">
          <mxGeometry x="1360" y="1700" width="40" height="30" as="geometry" />
        </mxCell>
        <mxCell id="1DMc-ccGn1UujM1KB7TH-205" value="43" style="text;html=1;align=center;verticalAlign=middle;resizable=0;points=[];autosize=1;strokeColor=none;fillColor=none;" vertex="1" parent="1">
          <mxGeometry x="1295" y="1560" width="40" height="30" as="geometry" />
        </mxCell>
        <mxCell id="1DMc-ccGn1UujM1KB7TH-206" value="3" style="text;html=1;align=center;verticalAlign=middle;resizable=0;points=[];autosize=1;strokeColor=none;fillColor=none;" vertex="1" parent="1">
          <mxGeometry x="1260" y="1560" width="30" height="30" as="geometry" />
        </mxCell>
        <mxCell id="1DMc-ccGn1UujM1KB7TH-207" value="63" style="text;html=1;align=center;verticalAlign=middle;resizable=0;points=[];autosize=1;strokeColor=none;fillColor=none;" vertex="1" parent="1">
          <mxGeometry x="1670" y="1840" width="40" height="30" as="geometry" />
        </mxCell>
        <mxCell id="1DMc-ccGn1UujM1KB7TH-208" value="59" style="text;html=1;align=center;verticalAlign=middle;resizable=0;points=[];autosize=1;strokeColor=none;fillColor=none;" vertex="1" parent="1">
          <mxGeometry x="1620" y="1840" width="40" height="30" as="geometry" />
        </mxCell>
        <mxCell id="1DMc-ccGn1UujM1KB7TH-209" value="59" style="text;html=1;align=center;verticalAlign=middle;resizable=0;points=[];autosize=1;strokeColor=none;fillColor=none;" vertex="1" parent="1">
          <mxGeometry x="1475" y="1840" width="40" height="30" as="geometry" />
        </mxCell>
        <mxCell id="1DMc-ccGn1UujM1KB7TH-210" value="27" style="text;html=1;align=center;verticalAlign=middle;resizable=0;points=[];autosize=1;strokeColor=none;fillColor=none;" vertex="1" parent="1">
          <mxGeometry x="1435" y="1840" width="40" height="30" as="geometry" />
        </mxCell>
        <mxCell id="1DMc-ccGn1UujM1KB7TH-212" value="31" style="text;html=1;align=center;verticalAlign=middle;resizable=0;points=[];autosize=1;strokeColor=none;fillColor=none;" vertex="1" parent="1">
          <mxGeometry x="1480" y="2088" width="40" height="30" as="geometry" />
        </mxCell>
        <mxCell id="1DMc-ccGn1UujM1KB7TH-213" value="27" style="text;html=1;align=center;verticalAlign=middle;resizable=0;points=[];autosize=1;strokeColor=none;fillColor=none;" vertex="1" parent="1">
          <mxGeometry x="1440" y="2088" width="40" height="30" as="geometry" />
        </mxCell>
        <mxCell id="1DMc-ccGn1UujM1KB7TH-214" value="27" style="text;html=1;align=center;verticalAlign=middle;resizable=0;points=[];autosize=1;strokeColor=none;fillColor=none;" vertex="1" parent="1">
          <mxGeometry x="1295" y="1830" width="40" height="30" as="geometry" />
        </mxCell>
        <mxCell id="1DMc-ccGn1UujM1KB7TH-215" value="3" style="text;html=1;align=center;verticalAlign=middle;resizable=0;points=[];autosize=1;strokeColor=none;fillColor=none;" vertex="1" parent="1">
          <mxGeometry x="1260" y="1830" width="30" height="30" as="geometry" />
        </mxCell>
        <mxCell id="1DMc-ccGn1UujM1KB7TH-216" value="235" style="text;html=1;align=center;verticalAlign=middle;resizable=0;points=[];autosize=1;strokeColor=none;fillColor=none;" vertex="1" parent="1">
          <mxGeometry x="1470" y="2290" width="40" height="30" as="geometry" />
        </mxCell>
        <mxCell id="1DMc-ccGn1UujM1KB7TH-217" value="35" style="text;html=1;align=center;verticalAlign=middle;resizable=0;points=[];autosize=1;strokeColor=none;fillColor=none;" vertex="1" parent="1">
          <mxGeometry x="1420" y="2290" width="40" height="30" as="geometry" />
        </mxCell>
        <mxCell id="1DMc-ccGn1UujM1KB7TH-218" value="39" style="text;html=1;align=center;verticalAlign=middle;resizable=0;points=[];autosize=1;strokeColor=none;fillColor=none;" vertex="1" parent="1">
          <mxGeometry x="1445" y="2488" width="40" height="30" as="geometry" />
        </mxCell>
        <mxCell id="1DMc-ccGn1UujM1KB7TH-219" value="35" style="text;html=1;align=center;verticalAlign=middle;resizable=0;points=[];autosize=1;strokeColor=none;fillColor=none;" vertex="1" parent="1">
          <mxGeometry x="1395" y="2488" width="40" height="30" as="geometry" />
        </mxCell>
        <mxCell id="1DMc-ccGn1UujM1KB7TH-220" value="235" style="text;html=1;align=center;verticalAlign=middle;resizable=0;points=[];autosize=1;strokeColor=none;fillColor=none;" vertex="1" parent="1">
          <mxGeometry x="1445" y="2730" width="40" height="30" as="geometry" />
        </mxCell>
        <mxCell id="1DMc-ccGn1UujM1KB7TH-221" value="35" style="text;html=1;align=center;verticalAlign=middle;resizable=0;points=[];autosize=1;strokeColor=none;fillColor=none;" vertex="1" parent="1">
          <mxGeometry x="1395" y="2730" width="40" height="30" as="geometry" />
        </mxCell>
        <mxCell id="1DMc-ccGn1UujM1KB7TH-222" value="35" style="text;html=1;align=center;verticalAlign=middle;resizable=0;points=[];autosize=1;strokeColor=none;fillColor=none;" vertex="1" parent="1">
          <mxGeometry x="1285" y="2488" width="40" height="30" as="geometry" />
        </mxCell>
        <mxCell id="1DMc-ccGn1UujM1KB7TH-223" value="3" style="text;html=1;align=center;verticalAlign=middle;resizable=0;points=[];autosize=1;strokeColor=none;fillColor=none;" vertex="1" parent="1">
          <mxGeometry x="1240" y="2488" width="30" height="30" as="geometry" />
        </mxCell>
        <mxCell id="1DMc-ccGn1UujM1KB7TH-224" value="39" style="text;html=1;align=center;verticalAlign=middle;resizable=0;points=[];autosize=1;strokeColor=none;fillColor=none;" vertex="1" parent="1">
          <mxGeometry x="1480" y="3020" width="40" height="30" as="geometry" />
        </mxCell>
        <mxCell id="1DMc-ccGn1UujM1KB7TH-226" value="35" style="text;html=1;align=center;verticalAlign=middle;resizable=0;points=[];autosize=1;strokeColor=none;fillColor=none;" vertex="1" parent="1">
          <mxGeometry x="1430" y="3020" width="40" height="30" as="geometry" />
        </mxCell>
        <mxCell id="1DMc-ccGn1UujM1KB7TH-227" value="35" style="text;html=1;align=center;verticalAlign=middle;resizable=0;points=[];autosize=1;strokeColor=none;fillColor=none;" vertex="1" parent="1">
          <mxGeometry x="1300" y="3020" width="40" height="30" as="geometry" />
        </mxCell>
        <mxCell id="1DMc-ccGn1UujM1KB7TH-228" value="3" style="text;html=1;align=center;verticalAlign=middle;resizable=0;points=[];autosize=1;strokeColor=none;fillColor=none;" vertex="1" parent="1">
          <mxGeometry x="1265" y="3020" width="30" height="30" as="geometry" />
        </mxCell>
        <mxCell id="1DMc-ccGn1UujM1KB7TH-229" value="3" style="text;html=1;align=center;verticalAlign=middle;resizable=0;points=[];autosize=1;strokeColor=none;fillColor=none;" vertex="1" parent="1">
          <mxGeometry x="1000" y="1830" width="30" height="30" as="geometry" />
        </mxCell>
        <mxCell id="1DMc-ccGn1UujM1KB7TH-230" value="1" style="text;html=1;align=center;verticalAlign=middle;resizable=0;points=[];autosize=1;strokeColor=none;fillColor=none;" vertex="1" parent="1">
          <mxGeometry x="970" y="1830" width="30" height="30" as="geometry" />
        </mxCell>
        <mxCell id="1DMc-ccGn1UujM1KB7TH-231" value="8" style="text;html=1;align=center;verticalAlign=middle;resizable=0;points=[];autosize=1;strokeColor=none;fillColor=none;" vertex="1" parent="1">
          <mxGeometry x="1005" y="1139" width="30" height="30" as="geometry" />
        </mxCell>
        <mxCell id="1DMc-ccGn1UujM1KB7TH-232" value="1" style="text;html=1;align=center;verticalAlign=middle;resizable=0;points=[];autosize=1;strokeColor=none;fillColor=none;" vertex="1" parent="1">
          <mxGeometry x="975" y="1139" width="30" height="30" as="geometry" />
        </mxCell>
        <mxCell id="1DMc-ccGn1UujM1KB7TH-233" value="6" style="text;html=1;align=center;verticalAlign=middle;resizable=0;points=[];autosize=1;strokeColor=none;fillColor=none;" vertex="1" parent="1">
          <mxGeometry x="1010" y="968" width="30" height="30" as="geometry" />
        </mxCell>
        <mxCell id="1DMc-ccGn1UujM1KB7TH-234" value="1" style="text;html=1;align=center;verticalAlign=middle;resizable=0;points=[];autosize=1;strokeColor=none;fillColor=none;" vertex="1" parent="1">
          <mxGeometry x="980" y="968" width="30" height="30" as="geometry" />
        </mxCell>
        <mxCell id="1DMc-ccGn1UujM1KB7TH-235" value="5" style="text;html=1;align=center;verticalAlign=middle;resizable=0;points=[];autosize=1;strokeColor=none;fillColor=none;" vertex="1" parent="1">
          <mxGeometry x="1015" y="798" width="30" height="30" as="geometry" />
        </mxCell>
        <mxCell id="1DMc-ccGn1UujM1KB7TH-236" value="1" style="text;html=1;align=center;verticalAlign=middle;resizable=0;points=[];autosize=1;strokeColor=none;fillColor=none;" vertex="1" parent="1">
          <mxGeometry x="980" y="800" width="30" height="30" as="geometry" />
        </mxCell>
        <mxCell id="1DMc-ccGn1UujM1KB7TH-237" value="2" style="text;html=1;align=center;verticalAlign=middle;resizable=0;points=[];autosize=1;strokeColor=none;fillColor=none;" vertex="1" parent="1">
          <mxGeometry x="1000" y="588" width="30" height="30" as="geometry" />
        </mxCell>
        <mxCell id="1DMc-ccGn1UujM1KB7TH-238" value="1" style="text;html=1;align=center;verticalAlign=middle;resizable=0;points=[];autosize=1;strokeColor=none;fillColor=none;" vertex="1" parent="1">
          <mxGeometry x="970" y="588" width="30" height="30" as="geometry" />
        </mxCell>
        <mxCell id="1DMc-ccGn1UujM1KB7TH-239" value="1" style="text;html=1;align=center;verticalAlign=middle;resizable=0;points=[];autosize=1;strokeColor=none;fillColor=none;" vertex="1" parent="1">
          <mxGeometry x="820" y="968" width="30" height="30" as="geometry" />
        </mxCell>
        <mxCell id="1DMc-ccGn1UujM1KB7TH-240" value="0" style="text;html=1;align=center;verticalAlign=middle;resizable=0;points=[];autosize=1;strokeColor=none;fillColor=none;" vertex="1" parent="1">
          <mxGeometry x="790" y="968" width="30" height="30" as="geometry" />
        </mxCell>
        <mxCell id="1DMc-ccGn1UujM1KB7TH-241" value="0" style="text;html=1;align=center;verticalAlign=middle;resizable=0;points=[];autosize=1;strokeColor=none;fillColor=none;" vertex="1" parent="1">
          <mxGeometry x="690" y="968" width="30" height="30" as="geometry" />
        </mxCell>
        <mxCell id="1DMc-ccGn1UujM1KB7TH-242" value="0" style="text;html=1;align=center;verticalAlign=middle;resizable=0;points=[];autosize=1;strokeColor=none;fillColor=none;" vertex="1" parent="1">
          <mxGeometry x="650" y="968" width="30" height="30" as="geometry" />
        </mxCell>
        <mxCell id="1DMc-ccGn1UujM1KB7TH-243" value="248" style="text;html=1;align=center;verticalAlign=middle;resizable=0;points=[];autosize=1;strokeColor=none;fillColor=none;" vertex="1" parent="1">
          <mxGeometry x="1000" y="-52" width="40" height="30" as="geometry" />
        </mxCell>
        <mxCell id="1DMc-ccGn1UujM1KB7TH-244" value="240" style="text;html=1;align=center;verticalAlign=middle;resizable=0;points=[];autosize=1;strokeColor=none;fillColor=none;" vertex="1" parent="1">
          <mxGeometry x="950" y="-52" width="40" height="30" as="geometry" />
        </mxCell>
        <mxCell id="1DMc-ccGn1UujM1KB7TH-245" value="248" style="text;html=1;align=center;verticalAlign=middle;resizable=0;points=[];autosize=1;strokeColor=none;fillColor=none;" vertex="1" parent="1">
          <mxGeometry x="1000" y="160" width="40" height="30" as="geometry" />
        </mxCell>
        <mxCell id="1DMc-ccGn1UujM1KB7TH-246" value="240" style="text;html=1;align=center;verticalAlign=middle;resizable=0;points=[];autosize=1;strokeColor=none;fillColor=none;" vertex="1" parent="1">
          <mxGeometry x="955" y="160" width="40" height="30" as="geometry" />
        </mxCell>
        <mxCell id="1DMc-ccGn1UujM1KB7TH-247" value="248" style="text;html=1;align=center;verticalAlign=middle;whiteSpace=wrap;rounded=0;" vertex="1" parent="1">
          <mxGeometry x="1000" y="380" width="60" height="30" as="geometry" />
        </mxCell>
        <mxCell id="1DMc-ccGn1UujM1KB7TH-248" value="240" style="text;html=1;align=center;verticalAlign=middle;whiteSpace=wrap;rounded=0;" vertex="1" parent="1">
          <mxGeometry x="940" y="380" width="60" height="30" as="geometry" />
        </mxCell>
        <mxCell id="1DMc-ccGn1UujM1KB7TH-249" value="240" style="text;html=1;align=center;verticalAlign=middle;resizable=0;points=[];autosize=1;strokeColor=none;fillColor=none;" vertex="1" parent="1">
          <mxGeometry x="850" y="160" width="40" height="30" as="geometry" />
        </mxCell>
        <mxCell id="1DMc-ccGn1UujM1KB7TH-250" value="0" style="text;html=1;align=center;verticalAlign=middle;resizable=0;points=[];autosize=1;strokeColor=none;fillColor=none;" vertex="1" parent="1">
          <mxGeometry x="810" y="160" width="30" height="30" as="geometry" />
        </mxCell>
        <mxCell id="1DMc-ccGn1UujM1KB7TH-253" style="edgeStyle=orthogonalEdgeStyle;rounded=0;orthogonalLoop=1;jettySize=auto;html=1;entryX=0.326;entryY=0.071;entryDx=0;entryDy=0;entryPerimeter=0;" edge="1" parent="1" source="1DMc-ccGn1UujM1KB7TH-179" target="1DMc-ccGn1UujM1KB7TH-193">
          <mxGeometry relative="1" as="geometry" />
        </mxCell>
        <mxCell id="1DMc-ccGn1UujM1KB7TH-255" style="edgeStyle=orthogonalEdgeStyle;rounded=0;orthogonalLoop=1;jettySize=auto;html=1;entryX=0.317;entryY=1.005;entryDx=0;entryDy=0;entryPerimeter=0;" edge="1" parent="1" source="1DMc-ccGn1UujM1KB7TH-20" target="1DMc-ccGn1UujM1KB7TH-193">
          <mxGeometry relative="1" as="geometry" />
        </mxCell>
        <mxCell id="1DMc-ccGn1UujM1KB7TH-270" value="H=0" style="text;html=1;align=center;verticalAlign=middle;resizable=0;points=[];autosize=1;strokeColor=none;fillColor=none;" vertex="1" parent="1">
          <mxGeometry x="845" y="920" width="50" height="30" as="geometry" />
        </mxCell>
        <mxCell id="1DMc-ccGn1UujM1KB7TH-271" value="H=0" style="text;html=1;align=center;verticalAlign=middle;resizable=0;points=[];autosize=1;strokeColor=none;fillColor=none;" vertex="1" parent="1">
          <mxGeometry x="1025" y="90" width="50" height="30" as="geometry" />
        </mxCell>
        <mxCell id="1DMc-ccGn1UujM1KB7TH-272" value="H=0" style="text;html=1;align=center;verticalAlign=middle;resizable=0;points=[];autosize=1;strokeColor=none;fillColor=none;" vertex="1" parent="1">
          <mxGeometry x="765" y="20" width="50" height="30" as="geometry" />
        </mxCell>
        <mxCell id="1DMc-ccGn1UujM1KB7TH-273" value="H=0" style="text;html=1;align=center;verticalAlign=middle;resizable=0;points=[];autosize=1;strokeColor=none;fillColor=none;" vertex="1" parent="1">
          <mxGeometry x="1020" y="310" width="50" height="30" as="geometry" />
        </mxCell>
        <mxCell id="1DMc-ccGn1UujM1KB7TH-274" value="H=0" style="text;html=1;align=center;verticalAlign=middle;resizable=0;points=[];autosize=1;strokeColor=none;fillColor=none;" vertex="1" parent="1">
          <mxGeometry x="1040" y="1088" width="50" height="30" as="geometry" />
        </mxCell>
        <mxCell id="1DMc-ccGn1UujM1KB7TH-275" value="H=0" style="text;html=1;align=center;verticalAlign=middle;resizable=0;points=[];autosize=1;strokeColor=none;fillColor=none;" vertex="1" parent="1">
          <mxGeometry x="1050" y="740" width="50" height="30" as="geometry" />
        </mxCell>
        <mxCell id="1DMc-ccGn1UujM1KB7TH-276" value="H=0" style="text;html=1;align=center;verticalAlign=middle;resizable=0;points=[];autosize=1;strokeColor=none;fillColor=none;" vertex="1" parent="1">
          <mxGeometry x="1030" y="-120" width="50" height="30" as="geometry" />
        </mxCell>
        <mxCell id="1DMc-ccGn1UujM1KB7TH-277" value="H=0" style="text;html=1;align=center;verticalAlign=middle;resizable=0;points=[];autosize=1;strokeColor=none;fillColor=none;" vertex="1" parent="1">
          <mxGeometry x="1040" y="530" width="50" height="30" as="geometry" />
        </mxCell>
        <mxCell id="1DMc-ccGn1UujM1KB7TH-278" value="H=0" style="text;html=1;align=center;verticalAlign=middle;resizable=0;points=[];autosize=1;strokeColor=none;fillColor=none;" vertex="1" parent="1">
          <mxGeometry x="1045" y="908" width="50" height="30" as="geometry" />
        </mxCell>
        <mxCell id="1DMc-ccGn1UujM1KB7TH-279" value="H=0" style="text;html=1;align=center;verticalAlign=middle;resizable=0;points=[];autosize=1;strokeColor=none;fillColor=none;" vertex="1" parent="1">
          <mxGeometry x="610" y="833" width="50" height="30" as="geometry" />
        </mxCell>
        <mxCell id="1DMc-ccGn1UujM1KB7TH-280" value="H=0" style="text;html=1;align=center;verticalAlign=middle;resizable=0;points=[];autosize=1;strokeColor=none;fillColor=none;" vertex="1" parent="1">
          <mxGeometry x="1475" y="1130" width="50" height="30" as="geometry" />
        </mxCell>
        <mxCell id="1DMc-ccGn1UujM1KB7TH-281" value="H=0" style="text;html=1;align=center;verticalAlign=middle;resizable=0;points=[];autosize=1;strokeColor=none;fillColor=none;" vertex="1" parent="1">
          <mxGeometry x="1210" y="1220" width="50" height="30" as="geometry" />
        </mxCell>
        <mxCell id="1DMc-ccGn1UujM1KB7TH-282" value="H=0" style="text;html=1;align=center;verticalAlign=middle;resizable=0;points=[];autosize=1;strokeColor=none;fillColor=none;" vertex="1" parent="1">
          <mxGeometry x="1505" y="1300" width="50" height="30" as="geometry" />
        </mxCell>
        <mxCell id="1DMc-ccGn1UujM1KB7TH-283" value="H=0" style="text;html=1;align=center;verticalAlign=middle;resizable=0;points=[];autosize=1;strokeColor=none;fillColor=none;" vertex="1" parent="1">
          <mxGeometry x="1210" y="1490" width="50" height="30" as="geometry" />
        </mxCell>
        <mxCell id="1DMc-ccGn1UujM1KB7TH-284" value="H=0" style="text;html=1;align=center;verticalAlign=middle;resizable=0;points=[];autosize=1;strokeColor=none;fillColor=none;" vertex="1" parent="1">
          <mxGeometry x="1500" y="1490" width="50" height="30" as="geometry" />
        </mxCell>
        <mxCell id="1DMc-ccGn1UujM1KB7TH-285" value="H=0" style="text;html=1;align=center;verticalAlign=middle;resizable=0;points=[];autosize=1;strokeColor=none;fillColor=none;" vertex="1" parent="1">
          <mxGeometry x="1430" y="1650" width="50" height="30" as="geometry" />
        </mxCell>
        <mxCell id="1DMc-ccGn1UujM1KB7TH-286" value="H=0" style="text;html=1;align=center;verticalAlign=middle;resizable=0;points=[];autosize=1;strokeColor=none;fillColor=none;" vertex="1" parent="1">
          <mxGeometry x="1040" y="1780" width="50" height="30" as="geometry" />
        </mxCell>
        <mxCell id="1DMc-ccGn1UujM1KB7TH-287" value="H=0" style="text;html=1;align=center;verticalAlign=middle;resizable=0;points=[];autosize=1;strokeColor=none;fillColor=none;" vertex="1" parent="1">
          <mxGeometry x="1205" y="1770" width="50" height="30" as="geometry" />
        </mxCell>
        <mxCell id="1DMc-ccGn1UujM1KB7TH-288" value="H=0" style="text;html=1;align=center;verticalAlign=middle;resizable=0;points=[];autosize=1;strokeColor=none;fillColor=none;" vertex="1" parent="1">
          <mxGeometry x="1390" y="1770" width="50" height="30" as="geometry" />
        </mxCell>
        <mxCell id="1DMc-ccGn1UujM1KB7TH-289" value="H=0" style="text;html=1;align=center;verticalAlign=middle;resizable=0;points=[];autosize=1;strokeColor=none;fillColor=none;" vertex="1" parent="1">
          <mxGeometry x="1585" y="1770" width="50" height="30" as="geometry" />
        </mxCell>
        <mxCell id="1DMc-ccGn1UujM1KB7TH-290" value="H=0" style="text;html=1;align=center;verticalAlign=middle;resizable=0;points=[];autosize=1;strokeColor=none;fillColor=none;" vertex="1" parent="1">
          <mxGeometry x="1400" y="2020" width="50" height="30" as="geometry" />
        </mxCell>
        <mxCell id="1DMc-ccGn1UujM1KB7TH-291" value="H=0" style="text;html=1;align=center;verticalAlign=middle;resizable=0;points=[];autosize=1;strokeColor=none;fillColor=none;" vertex="1" parent="1">
          <mxGeometry x="1500" y="2220" width="50" height="30" as="geometry" />
        </mxCell>
        <mxCell id="1DMc-ccGn1UujM1KB7TH-292" value="H=0" style="text;html=1;align=center;verticalAlign=middle;resizable=0;points=[];autosize=1;strokeColor=none;fillColor=none;" vertex="1" parent="1">
          <mxGeometry x="1195" y="2360" width="50" height="30" as="geometry" />
        </mxCell>
        <mxCell id="1DMc-ccGn1UujM1KB7TH-293" value="H=0" style="text;html=1;align=center;verticalAlign=middle;resizable=0;points=[];autosize=1;strokeColor=none;fillColor=none;" vertex="1" parent="1">
          <mxGeometry x="1475" y="2410" width="50" height="30" as="geometry" />
        </mxCell>
        <mxCell id="1DMc-ccGn1UujM1KB7TH-295" value="H=0" style="text;html=1;align=center;verticalAlign=middle;resizable=0;points=[];autosize=1;strokeColor=none;fillColor=none;" vertex="1" parent="1">
          <mxGeometry x="1475" y="2650" width="50" height="30" as="geometry" />
        </mxCell>
        <mxCell id="1DMc-ccGn1UujM1KB7TH-297" value="H=0" style="text;html=1;align=center;verticalAlign=middle;resizable=0;points=[];autosize=1;strokeColor=none;fillColor=none;" vertex="1" parent="1">
          <mxGeometry x="1200" y="2940" width="50" height="30" as="geometry" />
        </mxCell>
        <mxCell id="1DMc-ccGn1UujM1KB7TH-298" value="H=0" style="text;html=1;align=center;verticalAlign=middle;resizable=0;points=[];autosize=1;strokeColor=none;fillColor=none;" vertex="1" parent="1">
          <mxGeometry x="1510" y="2940" width="50" height="30" as="geometry" />
        </mxCell>
      </root>
    </mxGraphModel>
  </diagram>
</mxfile>
